<svg width="456" height="262" viewBox="0 0 456 262" fill="none" xmlns="http://www.w3.org/2000/svg">
<rect width="456" height="262" fill="white"/>
<path d="M422.597 135.132C408.436 160.801 376.147 170.131 350.478 155.97C324.809 141.809 315.48 109.52 329.641 83.8513C343.802 58.1822 409.947 19.8143 432.859 6.64056C432.859 41 436.758 109.463 422.597 135.132Z" fill="#5498FF"/>
<path d="M80.5664 201.582C79.069 202.298 77.2786 202.982 75.1953 203.633C73.112 204.219 70.8659 204.74 68.457 205.195C66.0482 205.716 63.5742 206.107 61.0352 206.367C58.5612 206.628 56.1523 206.758 53.8086 206.758C47.1029 206.758 40.9505 205.651 35.3516 203.438C29.7526 201.224 24.9349 198.132 20.8984 194.16C16.9271 190.189 13.8021 185.469 11.5234 180C9.3099 174.466 8.20312 168.411 8.20312 161.836C8.20312 154.414 9.24479 147.741 11.3281 141.816C13.4115 135.827 16.3737 130.749 20.2148 126.582C24.056 122.35 28.7109 119.095 34.1797 116.816C39.6484 114.538 45.8008 113.398 52.6367 113.398C55.2409 113.398 57.6497 113.561 59.8633 113.887C62.0768 114.147 64.1927 114.538 66.2109 115.059C68.2943 115.579 70.3451 116.23 72.3633 117.012C74.3815 117.793 76.4648 118.672 78.6133 119.648V138.594C76.0742 136.901 73.6979 135.501 71.4844 134.395C69.3359 133.223 67.2526 132.311 65.2344 131.66C63.2812 130.944 61.3607 130.456 59.4727 130.195C57.6497 129.935 55.7617 129.805 53.8086 129.805C49.7721 129.805 46.0612 130.553 42.6758 132.051C39.2904 133.483 36.3932 135.534 33.9844 138.203C31.5755 140.872 29.6875 144.062 28.3203 147.773C27.0182 151.484 26.3672 155.618 26.3672 160.176C26.3672 164.863 27.0833 169.062 28.5156 172.773C29.9479 176.419 31.9987 179.512 34.668 182.051C37.3372 184.59 40.5273 186.543 44.2383 187.91C48.0143 189.277 52.2135 189.961 56.8359 189.961C60.612 189.961 64.388 189.473 68.1641 188.496C71.9401 187.52 76.0742 186.022 80.5664 184.004V201.582ZM142.285 113.398C149.316 113.398 155.794 114.538 161.719 116.816C167.708 119.095 172.852 122.285 177.148 126.387C181.51 130.423 184.896 135.241 187.305 140.84C189.714 146.439 190.918 152.559 190.918 159.199C190.918 166.296 189.714 172.773 187.305 178.633C184.961 184.492 181.641 189.505 177.344 193.672C173.112 197.839 168.001 201.061 162.012 203.34C156.087 205.618 149.512 206.758 142.285 206.758C135.384 206.758 129.036 205.586 123.242 203.242C117.448 200.833 112.435 197.546 108.203 193.379C104.036 189.147 100.781 184.134 98.4375 178.34C96.0938 172.48 94.9219 166.1 94.9219 159.199C94.9219 152.754 96.1263 146.764 98.5352 141.23C100.944 135.632 104.264 130.781 108.496 126.68C112.793 122.513 117.806 119.258 123.535 116.914C129.329 114.57 135.579 113.398 142.285 113.398ZM142.09 129.414C137.923 129.414 134.049 130.163 130.469 131.66C126.953 133.158 123.893 135.241 121.289 137.91C118.685 140.514 116.667 143.639 115.234 147.285C113.802 150.931 113.086 154.902 113.086 159.199C113.086 163.952 113.77 168.281 115.137 172.188C116.569 176.094 118.555 179.447 121.094 182.246C123.698 184.98 126.758 187.096 130.273 188.594C133.854 190.091 137.793 190.84 142.09 190.84C146.777 190.84 151.009 190.124 154.785 188.691C158.561 187.194 161.751 185.111 164.355 182.441C167.025 179.707 169.076 176.419 170.508 172.578C171.94 168.672 172.656 164.277 172.656 159.395C172.656 155.033 171.875 151.029 170.312 147.383C168.815 143.737 166.699 140.579 163.965 137.91C161.296 135.241 158.073 133.158 154.297 131.66C150.586 130.163 146.517 129.414 142.09 129.414ZM285.645 115.156L222.07 250.996H202.246L232.812 185.762L198.047 115.156H218.262L242.48 165.84L265.625 115.156H285.645ZM366.309 201.582C364.811 202.298 363.021 202.982 360.938 203.633C358.854 204.219 356.608 204.74 354.199 205.195C351.79 205.716 349.316 206.107 346.777 206.367C344.303 206.628 341.895 206.758 339.551 206.758C332.845 206.758 326.693 205.651 321.094 203.438C315.495 201.224 310.677 198.132 306.641 194.16C302.669 190.189 299.544 185.469 297.266 180C295.052 174.466 293.945 168.411 293.945 161.836C293.945 154.414 294.987 147.741 297.07 141.816C299.154 135.827 302.116 130.749 305.957 126.582C309.798 122.35 314.453 119.095 319.922 116.816C325.391 114.538 331.543 113.398 338.379 113.398C340.983 113.398 343.392 113.561 345.605 113.887C347.819 114.147 349.935 114.538 351.953 115.059C354.036 115.579 356.087 116.23 358.105 117.012C360.124 117.793 362.207 118.672 364.355 119.648V138.594C361.816 136.901 359.44 135.501 357.227 134.395C355.078 133.223 352.995 132.311 350.977 131.66C349.023 130.944 347.103 130.456 345.215 130.195C343.392 129.935 341.504 129.805 339.551 129.805C335.514 129.805 331.803 130.553 328.418 132.051C325.033 133.483 322.135 135.534 319.727 138.203C317.318 140.872 315.43 144.062 314.062 147.773C312.76 151.484 312.109 155.618 312.109 160.176C312.109 164.863 312.826 169.062 314.258 172.773C315.69 176.419 317.741 179.512 320.41 182.051C323.079 184.59 326.27 186.543 329.98 187.91C333.757 189.277 337.956 189.961 342.578 189.961C346.354 189.961 350.13 189.473 353.906 188.496C357.682 187.52 361.816 186.022 366.309 184.004V201.582Z" fill="black"/>
</svg>
