<svg width="44" height="52" viewBox="0 0 44 52" fill="none" xmlns="http://www.w3.org/2000/svg">
<mask id="path-1-inside-1_644_98" fill="white">
<path d="M0 0H22H44L22 52L0 0Z"/>
</mask>
<path d="M22 0L23.3815 -0.58446L22 -3.84971L20.6185 -0.58446L22 0ZM16.5 13L15.5717 14.1782L17.1156 15.3946L17.8815 13.5845L16.5 13ZM27.5 13L26.1185 13.5845L26.8844 15.3946L28.4283 14.1782L27.5 13ZM20.5 0V52H23.5V0H20.5ZM-0.928308 1.17824L15.5717 14.1782L17.4283 11.8218L0.928308 -1.17824L-0.928308 1.17824ZM17.8815 13.5845L23.3815 0.58446L20.6185 -0.58446L15.1185 12.4155L17.8815 13.5845ZM43.0717 -1.17824L26.5717 11.8218L28.4283 14.1782L44.9283 1.17824L43.0717 -1.17824ZM28.8815 12.4155L23.3815 -0.58446L20.6185 0.58446L26.1185 13.5845L28.8815 12.4155ZM0 0V-3H-4.52668L-2.7629 1.16892L0 0ZM44 0L46.7629 1.16892L48.5267 -3H44V0ZM22 52L19.2371 53.1689L22 59.6994L24.7629 53.1689L22 52ZM0 3H22V-3H0V3ZM22 3H44V-3H22V3ZM24.7629 50.8311L2.7629 -1.16892L-2.7629 1.16892L19.2371 53.1689L24.7629 50.8311ZM24.7629 53.1689L46.7629 1.16892L41.2371 -1.16892L19.2371 50.8311L24.7629 53.1689Z" fill="#001371" mask="url(#path-1-inside-1_644_98)"/>
</svg>
