<?xml version="1.0" encoding="UTF-8"?>
<svg width="347px" height="312px" viewBox="0 0 347 312" version="1.1" xmlns="http://www.w3.org/2000/svg" xmlns:xlink="http://www.w3.org/1999/xlink">
    <title>Artboard</title>
    <defs>
        <path d="M0,48.8608608 L22.7447309,82.6261959 C26.6516657,87.862902 32.4215669,91.5020256 40.0544345,93.5435669 C47.6873021,95.5851081 68.2393454,99.4725476 101.710564,105.205886 C118.158106,105.862084 130.569535,100.686785 138.944853,89.6799896 C147.32017,78.6731938 155.338087,66.1651093 162.998603,52.1557361 C166.630736,45.897529 167.538769,39.8218553 165.722703,33.9287151 C163.906636,28.035575 160.544969,16.7260033 155.637702,0 L122.208364,45.1155741 L63.9916616,52.6306327 L0,48.8608608 Z" id="path-1"></path>
        <path d="M6.54724121,84.6608584 C20.7278674,87.2395913 57.6710483,90.9237986 117.376784,95.7134803 C129.813395,97.4895437 140.555358,92.3070529 149.602675,80.1660079 C158.649991,68.0249629 173.420933,47.4154966 193.915499,18.337609 C201.359627,6.11253634 198.299243,0 184.734346,0 C164.387,0 125.890122,2.68938567 97.868323,4.44326446 C69.8465238,6.19714325 72.363318,4.44326446 57.3596986,18.337609 C42.3560793,32.2319536 19.4714014,51.037884 11.0888244,61.6044708 C2.70624731,72.1710575 -6.57161817,80.1660079 6.54724121,84.6608584 Z" id="path-3"></path>
        <path d="M45.9544705,11.8191315 C38.1211882,18.3567947 25.6852116,29.1872039 8.64654054,44.3103592 C-0.661205261,53.0058253 -2.45431574,58.2855302 3.26720909,60.1494738 C8.41743731,62.3964926 34.1684971,65.2162348 80.5203884,68.6087002 C98.6901864,69.8987342 111.498245,65.5697045 118.944563,55.621611 C130.11404,40.6994707 151.050182,15.406795 151.050182,11.8191315 C151.050182,8.23146803 157.196188,0 134.116579,0 C111.03697,0 76.6656973,2.01263679 71.9763938,2.01263679 C55.6958677,2.01263679 57.7043939,2.01263679 45.9544705,11.8191315 Z" id="path-5"></path>
        <path d="M82.8926008,111.151435 C69.7261623,127.680193 -33.0112807,102.347578 13.9297325,10.3206619 C17.9509908,3.06497734 0.739001489,-4.09958858 0.00136395743,2.78779623 C-0.120123011,13.8440064 7.83675582,61.7845395 38.8070343,64.398005 C50.471489,63.2924885 86.7044238,61.7065184 93.9570899,61.7065184 C101.209756,61.7065184 112.364187,66.2416093 108.407671,74.3919357 C104.451154,82.5422621 96.0590392,94.6226768 82.8926008,111.151435 Z" id="path-7"></path>
        <path d="M25.5586955,20 C20.0915987,15.5051099 16.2165103,10.6932955 13.9334303,5.56455676 C6.43541945,-5.83247516 -5.95060462,2.44596873 3.29026165,11.0784662 C7.96486002,15.11652 15.3876713,18.0903646 25.5586955,20 Z" id="path-9"></path>
        <path d="M33.1282051,34 C26.041963,26.3586869 21.0192215,18.1786024 18.0599803,9.45974649 C8.34134495,-9.91520777 -7.71294648,4.15814685 4.26471151,18.8333926 C10.3237474,25.6980839 19.9449119,30.7536198 33.1282051,34 Z" id="path-11"></path>
        <path d="M45.8470521,41.4875375 C37.2909084,34.0709689 31.2262978,26.1314751 27.6532203,17.6690561 C15.9186451,-1.13604655 -3.46579351,12.5233859 10.9963942,26.7670067 C18.3122579,33.4297954 29.9291439,38.336639 45.8470521,41.4875375 Z" id="path-13"></path>
        <path d="M30.6200705,20.2165409 C25.9530831,16.1711398 22.6451137,11.8405068 20.6961623,7.22464194 C14.2954849,-3.03268679 3.72215477,4.41791272 11.6106208,12.1871604 C15.6010919,15.8214088 21.9375752,18.497869 30.6200705,20.2165409 Z" id="path-15"></path>
        <path d="M40.734314,42.1269384 C33.7844652,32.6876692 28.8583994,22.582859 25.9561167,11.8125076 C16.4245419,-12.1212595 0.679257354,5.26347271 12.4263739,23.3917174 C18.3687878,31.8716303 27.8047678,38.1167039 40.734314,42.1269384 Z" id="path-17"></path>
    </defs>
    <g id="Artboard" stroke="none" stroke-width="1" fill="none" fill-rule="evenodd">
        <g id="Path-13" transform="translate(124.297262, 139.470119)">
            <mask id="mask-2" fill="white">
                <use xlink:href="#path-1"></use>
            </mask>
            <path stroke="#565656" stroke-width="3" d="M156.228292,-3.31657486 C161.595713,14.9955546 165.238293,27.2634166 167.15618,33.4869659 C169.088907,39.758668 168.168981,46.2347842 164.296366,52.9089054 C156.602722,66.975425 148.549444,79.5347825 140.138565,90.5883123 C131.481907,101.964844 118.677448,107.383997 101.650767,106.704693 C67.9126218,100.938429 47.3164369,97.0386411 39.6668577,94.9926301 C31.6482059,92.8479043 25.6137507,88.9952684 21.5205705,83.4937796 L21.5205705,83.4937796 L-2.93730503,47.1852225 L63.9392913,51.124947 L121.383211,43.7096451 Z"></path>
            <path d="M122.208364,45.1155741 C137.621953,66.8813088 143.587421,84.8379715 140.104767,98.9855621 C136.622113,113.133153 149.813456,101.269451 179.678798,63.3944572 L179.678798,10.2712557 L164.627972,-16.9824669 L122.208364,45.1155741 Z M65.6325858,52.6306327 C71.8629838,77.9035474 82.9587547,94.8006242 98.9198983,103.321863 C114.881042,111.843102 86.4476184,114.20419 13.6196276,110.405126 L-33,68.8480864 L-38.6547561,31.2626322 L65.6325858,52.6306327 Z" id="Path-24" fill="#F6F6F6" mask="url(#mask-2)"></path>
            <path d="M61.1031117,52.6306327 C2.62774003,61.8058833 28.7206907,93.6171039 73.943465,107.480481 C104.091981,116.722732 74.5626998,113.782867 -14.6443794,98.660885 L-10.0603338,37.7984889 C76.3655443,41.569751 100.086693,46.513799 61.1031117,52.6306327 Z" id="Path-15" fill="#C5C5C5" mask="url(#mask-2)"></path>
            <path d="M149.592297,74.0325847 C160.969224,51.3870565 164.641283,30.1332801 160.608475,10.2712557 C156.575668,-9.59076875 162.932442,4.52902359 179.678798,52.6306327 L149.592297,74.0325847 Z" id="Path-20" fill="#DBDBDB" mask="url(#mask-2)"></path>
        </g>
        <g id="Path-25" transform="translate(99.304719, 101.714643)">
            <mask id="mask-4" fill="white">
                <use xlink:href="#path-3"></use>
            </mask>
            <path stroke="#565656" stroke-width="3" d="M184.734346,-1.5 C188.342399,-1.5 191.246765,-1.07403345 193.456043,-0.261759026 C195.962504,0.659779257 197.628052,2.0822573 198.544586,3.91285934 C200.219324,7.25783033 199.355766,12.287489 195.196668,19.1177419 C174.636305,48.294822 159.857486,68.9149171 150.805449,81.0622966 C146.116714,87.3543447 140.976705,91.8251843 135.412503,94.5096489 C129.785606,97.2243616 123.71617,98.1273187 117.191163,97.2034081 C57.443609,92.4098401 20.4733329,88.7179045 6.27886901,86.1366552 C3.40139423,85.1686137 1.58861729,84.0989253 0.423332645,82.939538 C-1.04690823,81.4767379 -1.59629304,79.8445446 -1.48715743,78.0649162 C-1.26439541,74.4324297 2.26572498,69.9299155 6.55483858,64.774844 C7.65281803,63.4551861 8.79138443,62.0869501 9.91369592,60.6722298 C15.1529925,54.0678787 26.0098093,44.2587626 37.1123697,34.4274054 L37.1123697,34.4274054 L38.3383188,33.3424757 C39.1676667,32.6089132 39.9972202,31.8758415 40.824708,31.1445952 C46.3087187,26.2984067 51.701939,21.5326626 56.3405035,17.237045 C70.0809704,4.51246322 69.5373689,4.53443052 89.5832096,3.42248005 C91.9872794,3.28912538 94.6964609,3.13885543 97.7746217,2.94619397 C101.918296,2.68684224 106.29106,2.40703046 110.800327,2.1184844 C116.344252,1.76373103 122.094443,1.39577966 127.879482,1.03637062 L127.879482,1.03637062 L131.029595,0.841785691 L133.13017,0.713401346 L133.13017,0.713401346 L134.180703,0.649650216 L136.278336,0.523342921 C136.627726,0.502419521 136.976938,0.481565976 137.326476,0.460754838 L137.326476,0.460754838 L139.41707,0.337044097 C156.841162,-0.687489699 173.532736,-1.5 184.734346,-1.5 Z"></path>
            <path d="M265.398937,79.018109 C79.3377883,65.4883975 -17.1779476,74.7454542 -24.1482704,106.789279 C-31.1185931,138.833104 -37.3508973,130.450882 -42.845183,81.6426123 L17.1541327,-55.7442777 L265.398937,79.018109 Z" id="Path-26" fill="#D4E0FF" mask="url(#mask-4)"></path>
        </g>
        <path d="M249.897501,155.095093 C255.749373,157.273742 259.939277,158.363066 262.467211,158.363066 C264.995144,158.363066 266.546353,157.930444 267.120837,157.065199 L270.755909,151.46007 L252.149883,151.46007 L249.897501,155.095093 Z" id="Path-11" fill="#D8D8D8"></path>
        <g id="Path-8" transform="translate(121.030053, 111.901925)">
            <mask id="mask-6" fill="white">
                <use xlink:href="#path-5"></use>
            </mask>
            <path stroke="#565656" stroke-width="3" d="M134.116579,-1.5 C142.421885,-1.5 147.098473,-0.412068664 149.694615,1.06768418 C151.607199,2.15782142 152.539839,3.48249742 152.978064,4.83575462 C153.554179,6.61482235 153.199926,8.51703538 152.832161,10.160711 C152.693264,10.7814915 152.550182,11.3472177 152.550182,11.8191315 C152.550182,14.0891939 144.653431,24.8816242 135.683398,36.4415639 L135.063156,37.2399238 C134.752267,37.6396179 134.440289,38.0400126 134.1275,38.44079 L134.1275,38.44079 L131.559328,41.7286645 L130.705552,42.8214121 C126.876983,47.7223074 123.155793,52.4986841 120.145417,56.5204709 C112.447989,66.804041 99.269758,71.443659 80.4108972,70.1046988 C33.9359168,66.7032245 8.05959873,63.8091437 2.73083316,61.5520508 C0.879685396,60.9347267 -0.29699184,59.9836986 -0.929310291,58.8338553 C-1.59447117,57.6242896 -1.71653465,56.1264085 -1.0994238,54.3093631 C-0.154883507,51.5282216 2.7069975,47.8064544 7.62254488,43.2142602 C24.7052056,28.051409 37.1528255,17.2112109 44.9933328,10.6675178 C46.279179,9.59434957 47.3996597,8.63902232 48.3970997,7.78862431 C56.5969638,0.797579109 56.8563554,0.520851821 70.5588337,0.512901798 L70.5588337,0.512901798 L72.1197805,0.512040198 C73.7034835,0.499740551 77.9143115,0.309701848 83.6472018,0.0520055247 C91.2068055,-0.287802494 101.398245,-0.745874672 111.716711,-1.07614813 L113.714747,-1.13841012 L115.286647,-1.18490183 C121.842854,-1.37402092 128.333394,-1.5 134.116579,-1.5 Z"></path>
            <path d="M3.26720909,42.4611406 C31.5319764,22.404556 59.7838556,-9.82039697 136.735091,12.709691 C188.035915,27.7297496 183.629756,20.2197203 123.516613,-9.82039697 L52.5298153,-6.66442186 C0.844899631,39.4570096 -15.5759691,55.8321971 3.26720909,42.4611406 Z" id="Path-7" fill="#C8DAFF" mask="url(#mask-6)" transform="translate(83.941553, 18.574251) rotate(-5.000000) translate(-83.941553, -18.574251) "></path>
            <path d="M-5.32907052e-15,61.6731606 C75.6160821,66.4449378 127.658328,52.9346384 156.126737,21.1422625 C184.595146,-10.6501135 161.413759,12.6233495 86.5825772,90.9626514 L-6.79312467,65.366683 L-5.32907052e-15,61.6731606 Z" id="Path-21" fill="#AECDFF" mask="url(#mask-6)"></path>
        </g>
        <g id="Path-10" transform="translate(189.929848, 38.589940)">
            <mask id="mask-8" fill="white">
                <use xlink:href="#path-7"></use>
            </mask>
            <path stroke="#565656" stroke-width="3" d="M5.38249097,26.3996389 C5.83487893,27.8323722 6.31868693,29.2430243 6.82390202,30.6239273 C9.87943697,38.9756126 14.2353613,47.6532244 20.4891178,53.9314869 C25.3525775,58.8140046 31.3752474,62.2312959 38.8024866,62.8917972 C44.1048835,62.3956255 54.2686878,61.8045221 64.5275462,61.3037248 L64.5275462,61.3037248 L66.5921994,61.2041981 C66.7788504,61.1953134 66.9654264,61.1864628 67.1518984,61.1776474 L68.2692531,61.1251858 C79.6116641,60.5962975 90.3531,60.2065184 93.9570899,60.2065184 C98.4146979,60.2065184 104.215173,61.8308507 107.612339,64.8130474 C109.13362,66.148501 110.190495,67.7488735 110.574308,69.5662478 C110.91961,71.2012706 110.734743,73.0330262 109.757077,75.0469952 C105.77146,83.2572662 97.3300958,95.4344973 84.0658601,112.086027 C81.8345695,114.887124 77.3099636,116.727155 71.2863985,117.22612 C65.6992731,117.688932 58.8262822,117.040543 51.5756866,115.166785 C39.5553132,112.060382 26.4973069,105.587576 16.5677464,95.3331602 C9.25426899,87.7804152 3.63285069,78.1824808 1.34547829,66.3715987 C-0.628040599,56.1813039 -0.119631586,44.3300933 3.97881671,30.7071647 C4.42333225,29.2296291 4.89156933,27.7927768 5.38249097,26.3996389 Z M2.80133297,-1.44174227 C4.92652229,-1.70338329 7.72757794,-1.03334499 10.1952355,0.301235823 C12.4056715,1.49670369 14.3171832,3.20802978 15.291423,5.11355678 C16.2383556,6.96567317 16.372756,9.00171835 15.245744,11.0418485 C12.009491,17.3909908 9.49320221,23.4184218 7.61843723,29.1333296 L7.61843723,29.1333296 L5.54972694,35.7069421 L3.80871062,30.6268342 C-0.167704082,18.8514012 -1.55048625,7.49830679 -1.4985455,2.77131505 C-1.35823176,1.39673362 -0.854831577,0.478583998 -0.126575469,-0.190479773 C0.610438644,-0.867589702 1.61170117,-1.29528169 2.80133297,-1.44174227 Z"></path>
            <path d="M2.76971924,35.122696 C10.1928931,56.7019575 24.8803325,66.0359597 46.8320375,63.1247026 C68.7837425,60.2134455 68.7837425,54.0597725 46.8320375,44.6636834 L1.48774535,-11.9143303 L-9.11593927,35.122696 L2.76971924,35.122696 Z" id="Path-6" fill="#6698E4" mask="url(#mask-8)"></path>
            <path d="M23.2100116,100.880179 C66.7736534,108.280968 95.4481948,97.1514378 109.233636,67.4915883 C123.019077,37.8317388 126.561563,52.385021 119.861095,111.151435 L87.2326589,142.142812 L17.6827823,115.87013 L23.2100116,100.880179 Z" id="Path-12" fill="#6698E4" mask="url(#mask-8)"></path>
            <path d="M0,1.63067412 C-1.95399252e-14,10.8508587 12.3031259,16.0829275 15.4253931,10.8508587 C17.5069045,7.36281277 14.6055097,13.9242535 6.72120849,30.5351809 L-11.3666405,30.5351809 L-11.3666405,8.26628957 C-3.78888017,-2.30424376 1.24344979e-14,-4.51611558 0,1.63067412 Z" id="Path-16" fill="#3F80E2" mask="url(#mask-8)"></path>
        </g>
        <g id="Path-29" transform="translate(86.418051, 105.840110)">
            <mask id="mask-10" fill="white">
                <use xlink:href="#path-9"></use>
            </mask>
            <path stroke="#535861" stroke-width="3" d="M1.93040163,-0.68071549 C3.84948222,-1.67493412 6.43675919,-1.86278423 9.11992821,-0.697448242 C11.186799,0.200221223 13.3293138,1.91711028 15.1865578,4.7401348 C17.5024362,9.8936107 21.2490175,14.5148201 26.5113184,18.8413328 C28.1410129,20.1812209 29.7703318,21.3730155 31.3976772,22.4153609 C29.4519263,22.1878231 27.4133812,21.8744312 25.2819031,21.4742408 C14.7726831,19.5011083 7.1341344,16.3810733 2.30970659,12.2135925 C-0.299481605,9.77773254 -1.35528838,7.38221633 -1.48583096,5.3501231 C-1.57059708,4.0306098 -1.27391655,2.8340449 -0.699482899,1.82075405 C-0.0999993471,0.76327563 0.806703828,-0.0985610463 1.93040163,-0.68071549 Z"></path>
            <path d="M11.4710331,2.93409011 C16.7636827,4.84988166 15.4812492,1.62805855 7.62373264,-6.73137922 L-11.8114308,7.99544312 C8.38770861,18.6095522 15.5222294,21.4935855 9.59213148,16.647543 C0.696984636,9.37847932 3.53205874,0.0604027936 11.4710331,2.93409011 Z" id="Path-30" fill="#77ADFF" mask="url(#mask-10)"></path>
        </g>
        <g id="Path-31" transform="translate(135.672825, 99.108730)">
            <mask id="mask-12" fill="white">
                <use xlink:href="#path-11"></use>
            </mask>
            <path stroke="#535861" stroke-width="3" d="M7.06091042,-1.49984856 C8.55487768,-1.49080742 10.1609224,-1.07740866 11.7888268,-0.150105519 C14.377542,1.32450422 17.073681,4.14797003 19.4007575,8.78720169 C22.3754688,17.5074435 27.2963442,25.5053569 34.2280599,32.9800395 C35.3822177,34.2246034 36.5550363,35.4146696 37.7446121,36.5495412 C36.123677,36.2383492 34.465331,35.8740765 32.7695451,35.45649 C19.2164937,32.1190569 9.36274618,26.8760462 3.14011366,19.8260051 C0.0114385149,15.994463 -1.32561803,12.2354118 -1.48383799,9.00511515 C-1.68573342,4.88311847 0.0116627856,1.59338129 2.55344521,-0.133715816 C3.85790898,-1.02007634 5.39532038,-1.50992833 7.06091042,-1.49984856 Z"></path>
            <path d="M4.16420038,18.168912 C1.65564468,2.48188081 9.72886498,-3.69628298 18.6413764,6.30018075 C24.5830507,12.9644899 27.2800275,10.197763 26.7323068,-2 L6.73558866,-10.2568365 L-8.92081468,3.94958677 C1.47489917,23.8871577 5.83657086,28.6269327 4.16420038,18.168912 Z" id="Path-32" fill="#77ADFF" mask="url(#mask-12)"></path>
        </g>
        <g id="Path-27" transform="translate(39.573159, 111.822062)">
            <mask id="mask-14" fill="white">
                <use xlink:href="#path-13" transform="translate(25.847052, 24.987537) rotate(-35.000000) translate(-25.847052, -24.987537) "></use>
            </mask>
            <path stroke="#535861" stroke-width="3" d="M9.22902065,8.24552089 C12.055107,6.70191384 15.8638731,6.43647959 19.8092819,8.24306199 C22.9183341,9.66668101 26.1336369,12.4004426 28.9257836,16.8749637 C32.5275707,25.3571219 38.4685888,33.1067103 46.829542,40.3540854 C48.3119986,41.6390967 49.7992833,42.8465596 51.2895139,43.9756575 C49.4275362,43.6858874 47.5163025,43.347065 45.5557835,42.9589866 C29.2919133,39.7396061 17.4553874,34.6782638 9.98638913,27.8760107 C6.1666752,24.1156308 4.56005238,20.4132543 4.36717479,17.2478014 C4.24771007,15.28718 4.66356438,13.5081406 5.47342572,12.001993 C6.32881252,10.4111789 7.62687055,9.12061453 9.22902065,8.24552089 Z"></path>
            <path d="M19.347808,14.0180476 C2.46803802,16.0167212 5.19381082,35.6051949 25.8470521,35.6051949 C25.760955,35.826746 16.5871474,36.9720282 -1.67437087,39.0410417 L-9.78739076,10.6655906 L18.267962,8.74226565 C30.2410393,10.9270045 30.6009879,12.6855985 19.347808,14.0180476 Z" id="Path-28" fill="#77ADFF" mask="url(#mask-14)"></path>
        </g>
        <g id="Path-35" transform="translate(139.747284, 188.577058)">
            <mask id="mask-16" fill="white">
                <use xlink:href="#path-15" transform="translate(19.710980, 11.216541) rotate(-92.000000) translate(-19.710980, -11.216541) "></use>
            </mask>
            <path stroke="#535861" stroke-width="3" d="M10.3197653,1.48615416 C12.0217707,0.556519602 14.3173805,0.371590795 16.7015085,1.46327076 C18.4934857,2.2838079 20.3574662,3.84844526 21.9687256,6.43054953 C23.9463866,11.0661537 27.1307635,15.2068812 31.6025605,19.0830888 C33.1421971,20.4176644 34.6912067,21.5967208 36.2480393,22.6186757 C34.3743248,22.4079969 32.4013134,22.098237 30.3288019,21.68799 C21.3003446,19.900836 14.7442214,17.0698772 10.6006157,13.2961644 C8.33996318,11.0712839 7.42704236,8.88947067 7.31412693,7.03633435 C7.24063128,5.83014433 7.49961793,4.73671216 7.99758149,3.8106195 C8.52662971,2.82671682 9.32863099,2.02751122 10.3197653,1.48615416 Z"></path>
            <path d="M11.252716,12.2286725 C12.9228705,16.2675568 14.7834603,18.6744545 16.8344854,19.4493658 C18.8855105,20.224277 21.564446,20.6335177 24.871292,20.6770879 L16.3732905,29.6659255 L0,22.6055445 L11.252716,12.2286725 Z" id="Path-36" fill="#77ADFF" mask="url(#mask-16)"></path>
        </g>
        <g id="Path-33" transform="translate(107.142513, 138.577434)">
            <mask id="mask-18" fill="white">
                <use xlink:href="#path-17" transform="translate(24.489031, 21.126938) rotate(-75.000000) translate(-24.489031, -21.126938) "></use>
            </mask>
            <path stroke="#535861" stroke-width="3" d="M15.1712832,-1.37286492 C16.6784125,-1.36137693 18.3059315,-0.848162502 19.9519429,0.332801466 C22.4631312,2.13450413 25.0919497,5.58839038 27.349672,11.2575269 C30.2591047,22.0158161 35.1066379,31.9535049 41.9422278,41.2375879 C42.8363116,42.4519306 43.7511726,43.6371155 44.6834838,44.7930843 C43.2397879,44.4314114 41.775282,44.0202987 40.2899561,43.5596093 C26.9845542,39.4327993 17.3078282,32.9714033 11.1979669,24.2525403 C8.20918245,19.6420383 6.91059749,15.1176862 6.7589703,11.2185426 C6.56841186,6.31826887 8.20041912,2.40798313 10.5995185,0.354752983 C11.9226283,-0.777608934 13.4860162,-1.38571074 15.1712832,-1.37286492 Z"></path>
            <path d="M7.46414593,17.454242 C3.50404436,27.2549594 9.80459307,32.6991116 26.3657921,33.7866985 C42.926991,34.8742854 40.6748931,37.6966781 19.6094983,42.2538767 L-12.9555658,36.5068111 L-1.93139859,15.8826366 L7.46414593,17.454242 Z" id="Path-34" fill="#77ADFF" mask="url(#mask-18)"></path>
        </g>
    </g>
</svg>