<svg width="126" height="89" viewBox="0 0 126 89" fill="none" xmlns="http://www.w3.org/2000/svg">
<path d="M122.934 52.004C119.37 58.5332 111.244 60.9062 104.784 57.3042C98.3235 53.7023 95.9756 45.4893 99.5396 38.9601C103.104 32.4309 119.751 22.6716 125.517 19.3207C125.517 28.0604 126.498 45.4748 122.934 52.004Z" fill="white"/>
<path d="M18.2122 76.431C17.8353 76.6132 17.3848 76.787 16.8604 76.9526C16.3361 77.1017 15.7708 77.2341 15.1645 77.3501C14.5583 77.4825 13.9357 77.5819 13.2966 77.6481C12.674 77.7144 12.0677 77.7475 11.4779 77.7475C9.79019 77.7475 8.24178 77.466 6.83265 76.903C5.42352 76.3399 4.21101 75.5533 3.19512 74.5432C2.19562 73.533 1.40913 72.3324 0.835648 70.9414C0.278549 69.5338 0 67.9937 0 66.3211C0 64.4333 0.262164 62.7359 0.786492 61.229C1.31082 59.7054 2.05635 58.4138 3.02308 57.3539C3.98981 56.2775 5.16135 55.4495 6.53771 54.8699C7.91408 54.2903 9.46248 54.0005 11.1829 54.0005C11.8383 54.0005 12.4446 54.0419 13.0017 54.1247C13.5588 54.191 14.0913 54.2903 14.5993 54.4228C15.1236 54.5553 15.6397 54.7209 16.1477 54.9196C16.6556 55.1183 17.1799 55.3419 17.7206 55.5903V60.4092C17.0816 59.9787 16.4836 59.6226 15.9265 59.3411C15.3858 59.043 14.8614 58.8112 14.3535 58.6456C13.8619 58.4634 13.3786 58.3392 12.9034 58.273C12.4446 58.2068 11.9694 58.1736 11.4779 58.1736C10.462 58.1736 9.52802 58.3641 8.67599 58.745C7.82396 59.1093 7.09481 59.6309 6.48856 60.3099C5.88231 60.9888 5.40713 61.8003 5.06304 62.7442C4.73534 63.6881 4.57149 64.7397 4.57149 65.8989C4.57149 67.0912 4.75172 68.1593 5.1122 69.1032C5.47267 70.0306 5.98881 70.8172 6.6606 71.463C7.3324 72.1088 8.13528 72.6056 9.06924 72.9534C10.0196 73.3012 11.0764 73.475 12.2398 73.475C13.1901 73.475 14.1405 73.3508 15.0908 73.1024C16.0412 72.854 17.0816 72.4732 18.2122 71.9598V76.431Z" fill="white"/>
<path d="M33.7454 54.0005C35.515 54.0005 37.1454 54.2903 38.6364 54.8699C40.1439 55.4495 41.4383 56.261 42.5197 57.3042C43.6175 58.331 44.4696 59.5564 45.0758 60.9806C45.6821 62.4047 45.9852 63.9613 45.9852 65.6505C45.9852 67.4555 45.6821 69.1032 45.0758 70.5936C44.486 72.084 43.6503 73.3591 42.5689 74.419C41.5038 75.4788 40.2176 76.2985 38.7102 76.8781C37.2191 77.4577 35.5642 77.7475 33.7454 77.7475C32.0086 77.7475 30.411 77.4494 28.9527 76.8533C27.4944 76.2406 26.2328 75.4043 25.1677 74.3444C24.1191 73.268 23.2998 71.9929 22.71 70.5191C22.1201 69.0287 21.8252 67.4058 21.8252 65.6505C21.8252 64.011 22.1283 62.4875 22.7345 61.0799C23.3408 59.6558 24.1764 58.422 25.2415 57.3788C26.3229 56.3189 27.5846 55.4909 29.0265 54.8948C30.4848 54.2986 32.0577 54.0005 33.7454 54.0005ZM33.6963 58.0743C32.6476 58.0743 31.6727 58.2647 30.7715 58.6456C29.8867 59.0265 29.1166 59.5564 28.4612 60.2354C27.8058 60.8978 27.2978 61.6926 26.9374 62.62C26.5769 63.5473 26.3966 64.5575 26.3966 65.6505C26.3966 66.8593 26.5687 67.9606 26.9128 68.9542C27.2733 69.9478 27.773 70.8006 28.412 71.5127C29.0674 72.2082 29.8375 72.7464 30.7223 73.1273C31.6235 73.5082 32.6148 73.6986 33.6963 73.6986C34.876 73.6986 35.941 73.5164 36.8914 73.1521C37.8417 72.7712 38.6446 72.2413 39.3 71.5624C39.9718 70.8668 40.488 70.0306 40.8484 69.0535C41.2089 68.0599 41.3891 66.9421 41.3891 65.7001C41.3891 64.5906 41.1925 63.5722 40.7993 62.6448C40.4224 61.7175 39.8899 60.9143 39.2017 60.2354C38.5299 59.5564 37.7188 59.0265 36.7685 58.6456C35.8345 58.2647 34.8105 58.0743 33.6963 58.0743Z" fill="white"/>
<path d="M69.8257 54.4477L53.8256 89H48.8362L56.5291 72.4069L47.7794 54.4477H52.867L58.9623 67.3396L64.7873 54.4477H69.8257Z" fill="white"/>
<path d="M90.1271 76.431C89.7502 76.6132 89.2996 76.787 88.7753 76.9526C88.251 77.1017 87.6857 77.2341 87.0794 77.3501C86.4732 77.4825 85.8505 77.5819 85.2115 77.6481C84.5889 77.7144 83.9826 77.7475 83.3927 77.7475C81.705 77.7475 80.1566 77.466 78.7475 76.903C77.3384 76.3399 76.1259 75.5533 75.11 74.5432C74.1105 73.533 73.324 72.3324 72.7505 70.9414C72.1934 69.5338 71.9149 67.9937 71.9149 66.3211C71.9149 64.4333 72.177 62.7359 72.7014 61.229C73.2257 59.7054 73.9712 58.4138 74.9379 57.3539C75.9047 56.2775 77.0762 55.4495 78.4526 54.8699C79.8289 54.2903 81.3773 54.0005 83.0978 54.0005C83.7532 54.0005 84.3595 54.0419 84.9166 54.1247C85.4737 54.191 86.0062 54.2903 86.5141 54.4228C87.0385 54.5553 87.5546 54.7209 88.0625 54.9196C88.5705 55.1183 89.0948 55.3419 89.6355 55.5903V60.4092C88.9965 59.9787 88.3984 59.6226 87.8413 59.3411C87.3006 59.043 86.7763 58.8112 86.2683 58.6456C85.7768 58.4634 85.2934 58.3392 84.8183 58.273C84.3595 58.2068 83.8843 58.1736 83.3927 58.1736C82.3768 58.1736 81.4429 58.3641 80.5909 58.745C79.7388 59.1093 79.0097 59.6309 78.4034 60.3099C77.7972 60.9888 77.322 61.8003 76.9779 62.7442C76.6502 63.6881 76.4864 64.7397 76.4864 65.8989C76.4864 67.0912 76.6666 68.1593 77.0271 69.1032C77.3875 70.0306 77.9037 70.8172 78.5755 71.463C79.2473 72.1088 80.0501 72.6056 80.9841 72.9534C81.9344 73.3012 82.9913 73.475 84.1546 73.475C85.105 73.475 86.0553 73.3508 87.0057 73.1024C87.956 72.854 88.9965 72.4732 90.1271 71.9598V76.431Z" fill="white"/>
<path d="M7.03148 5.60762C6.93727 5.65316 6.82462 5.69663 6.69354 5.73803C6.56246 5.77529 6.42113 5.80841 6.26957 5.83739C6.11801 5.8705 5.96235 5.89534 5.80259 5.9119C5.64693 5.92846 5.49537 5.93674 5.3479 5.93674C4.92598 5.93674 4.53888 5.86636 4.1866 5.72561C3.83431 5.58485 3.53119 5.3882 3.27721 5.13566C3.02734 4.88312 2.83072 4.58297 2.68735 4.23521C2.54807 3.88331 2.47843 3.49829 2.47843 3.08015C2.47843 2.60819 2.54397 2.18384 2.67506 1.80711C2.80614 1.42623 2.99252 1.10331 3.2342 0.838348C3.47589 0.569249 3.76877 0.362249 4.11286 0.217349C4.45695 0.0724498 4.84405 0 5.27417 0C5.43802 0 5.58958 0.01035 5.72886 0.0310499C5.86813 0.0476099 6.00126 0.0724498 6.12825 0.10557C6.25933 0.13869 6.38836 0.18009 6.51535 0.229769C6.64233 0.279449 6.77342 0.335339 6.9086 0.397439V1.60218C6.74884 1.49454 6.59932 1.40553 6.46005 1.33515C6.32487 1.26063 6.19379 1.20267 6.0668 1.16127C5.94391 1.11573 5.82307 1.08468 5.70428 1.06812C5.58958 1.05156 5.47079 1.04328 5.3479 1.04328C5.09393 1.04328 4.86044 1.09089 4.64743 1.18611C4.43442 1.27719 4.25214 1.4076 4.10057 1.57734C3.94901 1.74708 3.83022 1.94993 3.74419 2.18591C3.66227 2.42189 3.6213 2.68478 3.6213 2.97458C3.6213 3.27266 3.66636 3.53969 3.75648 3.77567C3.8466 4.00751 3.97564 4.20416 4.14358 4.36562C4.31153 4.52708 4.51225 4.65128 4.74574 4.73822C4.98333 4.82516 5.24754 4.86863 5.53838 4.86863C5.77596 4.86863 6.01355 4.83758 6.25114 4.77548C6.48872 4.71338 6.74884 4.61816 7.03148 4.48982V5.60762Z" fill="white"/>
<path d="M10.9148 0C11.3572 0 11.7648 0.0724498 12.1375 0.217349C12.5144 0.362249 12.838 0.565109 13.1084 0.825928C13.3828 1.08261 13.5958 1.38897 13.7474 1.74501C13.899 2.10104 13.9747 2.4902 13.9747 2.91248C13.9747 3.36374 13.899 3.77567 13.7474 4.14827C13.5999 4.52087 13.391 4.83965 13.1207 5.10461C12.8544 5.36957 12.5328 5.5745 12.156 5.7194C11.7832 5.8643 11.3695 5.93674 10.9148 5.93674C10.4806 5.93674 10.0812 5.86223 9.71662 5.71319C9.35205 5.56001 9.03663 5.35094 8.77037 5.08598C8.50821 4.81688 8.30339 4.4981 8.15592 4.12964C8.00846 3.75704 7.93472 3.35132 7.93472 2.91248C7.93472 2.50262 8.0105 2.12174 8.16207 1.76985C8.31363 1.41381 8.52254 1.10538 8.7888 0.844558C9.05916 0.579599 9.37458 0.372599 9.73505 0.223559C10.0996 0.0745198 10.4929 0 10.9148 0ZM10.9025 1.01844C10.6403 1.01844 10.3966 1.06605 10.1713 1.16127C9.95011 1.25649 9.75758 1.38897 9.59373 1.55871C9.42988 1.72431 9.30289 1.92303 9.21277 2.15486C9.12265 2.3867 9.07759 2.63924 9.07759 2.91248C9.07759 3.2147 9.1206 3.49001 9.20663 3.73841C9.29675 3.98681 9.42168 4.20002 9.58144 4.37804C9.74529 4.55192 9.93782 4.68647 10.159 4.78169C10.3843 4.87691 10.6321 4.92452 10.9025 4.92452C11.1974 4.92452 11.4637 4.87898 11.7013 4.7879C11.9389 4.69268 12.1396 4.5602 12.3034 4.39046C12.4714 4.21658 12.6004 4.00751 12.6905 3.76325C12.7807 3.51485 12.8257 3.2354 12.8257 2.9249C12.8257 2.64752 12.7766 2.39291 12.6783 2.16107C12.584 1.92923 12.4509 1.72845 12.2789 1.55871C12.1109 1.38897 11.9081 1.25649 11.6706 1.16127C11.4371 1.06605 11.181 1.01844 10.9025 1.01844Z" fill="white"/>
<path d="M16.3096 5.82497H15.1913V0.11178H16.3096V2.4281H17.2436C17.3009 2.08034 17.4136 1.75743 17.5815 1.45935C17.7536 1.16127 17.9686 0.904588 18.2267 0.689308C18.4848 0.474029 18.7797 0.306359 19.1115 0.1863C19.4474 0.0620998 19.8058 0 20.1868 0C20.6292 0 21.0368 0.0724498 21.4095 0.217349C21.7864 0.362249 22.11 0.565109 22.3804 0.825928C22.6548 1.08261 22.8678 1.38897 23.0194 1.74501C23.171 2.10104 23.2467 2.4902 23.2467 2.91248C23.2467 3.36374 23.171 3.77567 23.0194 4.14827C22.8719 4.52087 22.663 4.83965 22.3927 5.10461C22.1264 5.36957 21.8048 5.5745 21.428 5.7194C21.0552 5.8643 20.6415 5.93674 20.1868 5.93674C19.7976 5.93674 19.4372 5.87671 19.1054 5.75666C18.7736 5.6366 18.4786 5.46686 18.2206 5.24744C17.9666 5.02802 17.7556 4.76513 17.5877 4.45877C17.4238 4.15241 17.3132 3.815 17.2559 3.44654H16.3096V5.82497ZM20.1745 1.01844C19.9123 1.01844 19.6686 1.06605 19.4433 1.16127C19.2221 1.25649 19.0296 1.38897 18.8657 1.55871C18.7019 1.72431 18.5749 1.92303 18.4848 2.15486C18.3947 2.3867 18.3496 2.63924 18.3496 2.91248C18.3496 3.2147 18.3926 3.49001 18.4786 3.73841C18.5687 3.98681 18.6937 4.20002 18.8534 4.37804C19.0173 4.55192 19.2098 4.68647 19.431 4.78169C19.6563 4.87691 19.9041 4.92452 20.1745 4.92452C20.4694 4.92452 20.7357 4.87898 20.9733 4.7879C21.2109 4.69268 21.4116 4.5602 21.5754 4.39046C21.7434 4.21658 21.8724 4.00751 21.9625 3.76325C22.0527 3.51485 22.0977 3.2354 22.0977 2.9249C22.0977 2.64752 22.0486 2.39291 21.9503 2.16107C21.856 1.92923 21.7229 1.72845 21.5509 1.55871C21.3829 1.38897 21.1801 1.25649 20.9426 1.16127C20.7091 1.06605 20.4531 1.01844 20.1745 1.01844Z" fill="white"/>
<path d="M25.1269 3.30371V2.4281C25.4465 2.4281 25.723 2.41982 25.9564 2.40326C26.194 2.38256 26.3907 2.3453 26.5463 2.29148C26.702 2.23352 26.8187 2.15486 26.8966 2.0555C26.9744 1.95615 27.0133 1.82574 27.0133 1.66428C27.0133 1.45314 26.9088 1.29375 26.6999 1.18611C26.4951 1.07433 26.2002 1.01844 25.8151 1.01844C25.4669 1.01844 25.1433 1.07019 24.8443 1.17369C24.5453 1.27305 24.2913 1.3869 24.0824 1.51524V0.546479C24.1807 0.471959 24.3056 0.401579 24.4572 0.335339C24.6129 0.269099 24.7767 0.211139 24.9488 0.16146C25.1208 0.11178 25.2928 0.0724498 25.4649 0.0434699C25.641 0.01449 25.8008 0 25.9442 0C26.2432 0 26.5258 0.0331199 26.7921 0.0993597C27.0584 0.16146 27.2918 0.254609 27.4926 0.378809C27.6933 0.503009 27.851 0.658258 27.9657 0.844558C28.0845 1.02672 28.1439 1.23786 28.1439 1.47798C28.1439 1.81332 28.0435 2.09897 27.8428 2.33495C27.6421 2.57093 27.3697 2.72204 27.0256 2.78828C27.1812 2.8214 27.3328 2.87936 27.4803 2.96216C27.6277 3.04082 27.7609 3.14225 27.8797 3.26645C27.9985 3.39065 28.0927 3.53348 28.1623 3.69494C28.236 3.8564 28.2729 4.03649 28.2729 4.23521C28.2729 4.57055 28.2012 4.84793 28.0579 5.06735C27.9145 5.28677 27.7261 5.46272 27.4926 5.5952C27.2632 5.72354 27.001 5.81462 26.7061 5.86843C26.4152 5.92225 26.1224 5.94916 25.8274 5.94916C25.7168 5.94916 25.5714 5.93881 25.3912 5.91811C25.2109 5.90155 25.0266 5.8705 24.8382 5.82497C24.6497 5.78357 24.4695 5.72975 24.2974 5.66351C24.1295 5.59313 24.0025 5.51033 23.9165 5.41511V4.32215C24.0312 4.41323 24.1623 4.49603 24.3097 4.57055C24.4613 4.64507 24.6149 4.70924 24.7706 4.76306C24.9262 4.81688 25.0798 4.86035 25.2314 4.89347C25.3871 4.92245 25.5243 4.93694 25.6431 4.93694C26.1142 4.93694 26.4787 4.86863 26.7368 4.73201C26.9949 4.59539 27.1239 4.38218 27.1239 4.09238C27.1239 3.94748 27.085 3.82535 27.0072 3.72599C26.9293 3.62663 26.8249 3.5459 26.6938 3.4838C26.5668 3.4217 26.4214 3.37616 26.2575 3.34718C26.0978 3.3182 25.9339 3.30371 25.766 3.30371H25.1269Z" fill="white"/>
<path d="M5.39706 14.4986C5.83946 14.4986 6.24704 14.571 6.61981 14.7159C6.99667 14.8608 7.32027 15.0637 7.59063 15.3245C7.86508 15.5812 8.07809 15.8875 8.22966 16.2436C8.38122 16.5996 8.457 16.9888 8.457 17.4111C8.457 17.8623 8.38122 18.2742 8.22966 18.6468C8.08219 19.0194 7.87328 19.3382 7.60292 19.6032C7.33666 19.8681 7.0151 20.0731 6.63824 20.218C6.26547 20.3629 5.85175 20.4353 5.39706 20.4353C4.96285 20.4353 4.56346 20.3608 4.19888 20.2118C3.83431 20.0586 3.5189 19.8495 3.25264 19.5846C2.99047 19.3155 2.78566 18.9967 2.63819 18.6282C2.49072 18.2556 2.41699 17.8499 2.41699 17.4111C2.41699 17.0012 2.49277 16.6203 2.64433 16.2684C2.7959 15.9124 3.00481 15.604 3.27107 15.3431C3.54143 15.0782 3.85684 14.8712 4.21732 14.7221C4.58189 14.5731 4.97514 14.4986 5.39706 14.4986ZM5.38477 15.517C5.1226 15.517 4.87887 15.5646 4.65357 15.6598C4.43237 15.7551 4.23985 15.8875 4.07599 16.0573C3.91214 16.2229 3.78516 16.4216 3.69504 16.6534C3.60492 16.8853 3.55986 17.1378 3.55986 17.4111C3.55986 17.7133 3.60287 17.9886 3.68889 18.237C3.77901 18.4854 3.90395 18.6986 4.06371 18.8766C4.22756 19.0505 4.42009 19.185 4.64129 19.2803C4.86658 19.3755 5.11441 19.4231 5.38477 19.4231C5.6797 19.4231 5.94596 19.3776 6.18355 19.2865C6.42113 19.1913 6.62185 19.0588 6.78571 18.889C6.95365 18.7152 7.08269 18.5061 7.17281 18.2618C7.26293 18.0134 7.30799 17.734 7.30799 17.4235C7.30799 17.1461 7.25883 16.8915 7.16052 16.6596C7.0663 16.4278 6.93317 16.227 6.76113 16.0573C6.59318 15.8875 6.39041 15.7551 6.15283 15.6598C5.91934 15.5646 5.66332 15.517 5.38477 15.517Z" fill="white"/>
<path d="M11.6644 14.6104C12.6926 14.6104 13.4791 14.8588 14.0239 15.3556C14.5728 15.8524 14.8472 16.5706 14.8472 17.5104C14.8472 17.941 14.7756 18.3363 14.6322 18.6965C14.4929 19.0526 14.2942 19.361 14.0362 19.6218C13.7822 19.8785 13.4791 20.0793 13.1268 20.2242C12.7786 20.3649 12.3956 20.4353 11.9778 20.4353C11.7934 20.4353 11.6132 20.4146 11.4371 20.3732C11.2609 20.336 11.0623 20.2718 10.8411 20.1807V23.2484H9.72276V14.6104H11.6644ZM10.8411 15.6288V19.1685C11.1892 19.3382 11.5415 19.4231 11.8979 19.4231C12.1601 19.4231 12.3997 19.3755 12.6168 19.2803C12.838 19.1809 13.0285 19.0464 13.1882 18.8766C13.348 18.7069 13.4729 18.504 13.5631 18.268C13.6532 18.0321 13.6982 17.7754 13.6982 17.498C13.6982 17.2041 13.6511 16.9412 13.5569 16.7093C13.4627 16.4775 13.3316 16.2829 13.1637 16.1256C12.9998 15.9641 12.8052 15.842 12.5799 15.7592C12.3587 15.6723 12.1191 15.6288 11.861 15.6288H10.8411Z" fill="white"/>
<path d="M17.2313 15.6288V20.3235H16.113V14.6104H19.7137V15.6288H17.2313Z" fill="white"/>
<path d="M23.0993 16.877V16.5727C23.0993 16.2125 23.0153 15.9558 22.8473 15.8027C22.6794 15.6454 22.4234 15.5667 22.0793 15.5667C21.7721 15.5667 21.4648 15.6433 21.1576 15.7965C20.8545 15.9455 20.5678 16.1835 20.2974 16.5106V15.2748C20.7357 14.7573 21.3604 14.4986 22.1715 14.4986C22.4582 14.4986 22.7265 14.5358 22.9764 14.6104C23.2263 14.6849 23.4434 14.7987 23.6277 14.9519C23.812 15.1051 23.9574 15.3017 24.064 15.5419C24.1705 15.7778 24.2237 16.0573 24.2237 16.3802V19.3175C24.2237 19.4252 24.2401 19.5018 24.2729 19.5473C24.3097 19.5887 24.363 19.6094 24.4326 19.6094C24.49 19.6094 24.5719 19.5825 24.6784 19.5287C24.7849 19.4748 24.9016 19.4003 25.0286 19.3051V19.9944C24.9016 20.0813 24.789 20.1538 24.6907 20.2118C24.5965 20.2656 24.5084 20.309 24.4265 20.3422C24.3446 20.3753 24.2647 20.3981 24.1868 20.4105C24.1131 20.427 24.0332 20.4353 23.9472 20.4353C23.7014 20.4353 23.5089 20.3918 23.3696 20.3049C23.2344 20.2138 23.1402 20.0627 23.087 19.8516C22.8412 20.0503 22.5913 20.1973 22.3374 20.2925C22.0834 20.3877 21.8274 20.4353 21.5693 20.4353C21.3604 20.4353 21.1699 20.3981 20.9979 20.3235C20.8299 20.2449 20.6845 20.1414 20.5616 20.013C20.4387 19.8847 20.3445 19.7377 20.279 19.5721C20.2134 19.4024 20.1806 19.2244 20.1806 19.0381C20.1806 18.7773 20.2278 18.5558 20.322 18.3736C20.4162 18.1914 20.5473 18.0341 20.7152 17.9016C20.8832 17.765 21.0859 17.645 21.3235 17.5415C21.5611 17.438 21.8233 17.3345 22.11 17.231L23.0993 16.877ZM23.0993 17.498C22.8617 17.5808 22.6343 17.6657 22.4172 17.7526C22.2042 17.8395 22.0158 17.9348 21.8519 18.0383C21.6881 18.1418 21.557 18.2577 21.4587 18.386C21.3645 18.5144 21.3174 18.6634 21.3174 18.8331C21.3174 18.9491 21.3379 19.0567 21.3788 19.1561C21.4198 19.2554 21.4751 19.3403 21.5447 19.4107C21.6144 19.4811 21.6983 19.5369 21.7966 19.5783C21.8991 19.6156 22.0076 19.6342 22.1223 19.6342C22.2984 19.6342 22.4664 19.5928 22.6261 19.51C22.79 19.4272 22.9477 19.3134 23.0993 19.1685V17.498Z" fill="white"/>
<path d="M31.0502 14.6104V20.3235H29.9319V17.883H27.1608V20.3235H26.0425V14.6104H27.1608V16.8646H29.9319V14.6104H31.0502Z" fill="white"/>
<path d="M35.2715 14.4986C35.7139 14.4986 36.1214 14.571 36.4942 14.7159C36.8711 14.8608 37.1947 15.0637 37.465 15.3245C37.7395 15.5812 37.9525 15.8875 38.1041 16.2436C38.2556 16.5996 38.3314 16.9888 38.3314 17.4111C38.3314 17.8623 38.2556 18.2742 38.1041 18.6468C37.9566 19.0194 37.7477 19.3382 37.4773 19.6032C37.2111 19.8681 36.8895 20.0731 36.5126 20.218C36.1399 20.3629 35.7262 20.4353 35.2715 20.4353C34.8373 20.4353 34.4379 20.3608 34.0733 20.2118C33.7087 20.0586 33.3933 19.8495 33.127 19.5846C32.8649 19.3155 32.6601 18.9967 32.5126 18.6282C32.3651 18.2556 32.2914 17.8499 32.2914 17.4111C32.2914 17.0012 32.3672 16.6203 32.5187 16.2684C32.6703 15.9124 32.8792 15.604 33.1455 15.3431C33.4158 15.0782 33.7313 14.8712 34.0917 14.7221C34.4563 14.5731 34.8495 14.4986 35.2715 14.4986ZM35.2592 15.517C34.997 15.517 34.7533 15.5646 34.528 15.6598C34.3068 15.7551 34.1143 15.8875 33.9504 16.0573C33.7866 16.2229 33.6596 16.4216 33.5694 16.6534C33.4793 16.8853 33.4343 17.1378 33.4343 17.4111C33.4343 17.7133 33.4773 17.9886 33.5633 18.237C33.6534 18.4854 33.7784 18.6986 33.9381 18.8766C34.102 19.0505 34.2945 19.185 34.5157 19.2803C34.741 19.3755 34.9888 19.4231 35.2592 19.4231C35.5541 19.4231 35.8204 19.3776 36.058 19.2865C36.2955 19.1913 36.4963 19.0588 36.6601 18.889C36.8281 18.7152 36.9571 18.5061 37.0472 18.2618C37.1373 18.0134 37.1824 17.734 37.1824 17.4235C37.1824 17.1461 37.1332 16.8915 37.0349 16.6596C36.9407 16.4278 36.8076 16.227 36.6355 16.0573C36.4676 15.8875 36.2648 15.7551 36.0272 15.6598C35.7937 15.5646 35.5377 15.517 35.2592 15.517Z" fill="white"/>
<path d="M39.548 20.3235V14.6104H41.6863C41.9935 14.6104 42.268 14.6476 42.5096 14.7221C42.7554 14.7925 42.9623 14.896 43.1302 15.0326C43.3023 15.1651 43.4334 15.3245 43.5235 15.5108C43.6177 15.6971 43.6648 15.902 43.6648 16.1256C43.6648 16.2912 43.6402 16.4444 43.5911 16.5851C43.5419 16.7217 43.4784 16.8439 43.4006 16.9515C43.3228 17.0592 43.2327 17.1523 43.1302 17.231C43.0319 17.3096 42.9316 17.3738 42.8292 17.4235C42.9562 17.4814 43.077 17.5477 43.1917 17.6222C43.3105 17.6926 43.4149 17.7795 43.5051 17.883C43.5952 17.9865 43.6669 18.1086 43.7201 18.2494C43.7734 18.386 43.8 18.5475 43.8 18.7338C43.8 18.9325 43.7652 19.1271 43.6955 19.3175C43.63 19.508 43.5214 19.6777 43.3699 19.8267C43.2183 19.9758 43.0196 20.0958 42.7739 20.1869C42.5322 20.278 42.2332 20.3235 41.8768 20.3235H39.548ZM40.6663 15.6288V17.0943H41.5081C41.8194 17.0943 42.0652 17.0343 42.2454 16.9143C42.4257 16.7901 42.5158 16.5748 42.5158 16.2684C42.5158 16.1525 42.4851 16.0552 42.4236 15.9766C42.3622 15.8938 42.2823 15.8275 42.184 15.7778C42.0857 15.724 41.9771 15.6868 41.8583 15.6661C41.7395 15.6412 41.6228 15.6288 41.5081 15.6288H40.6663ZM40.6663 17.8458V19.3051H41.6863C41.8256 19.3051 41.9546 19.2927 42.0734 19.2678C42.1922 19.2389 42.2946 19.1954 42.3806 19.1374C42.4666 19.0753 42.5342 18.9987 42.5834 18.9077C42.6325 18.8124 42.6571 18.6986 42.6571 18.5661C42.6571 18.4419 42.6243 18.3363 42.5588 18.2494C42.4933 18.1583 42.4011 18.0838 42.2823 18.0258C42.1676 17.9637 42.0304 17.9182 41.8706 17.8892C41.715 17.8602 41.545 17.8458 41.3606 17.8458H40.6663Z" fill="white"/>
<path d="M7.47389 29.1089L3.47384 37.747H2.22651L4.14973 33.5987L1.9623 29.1089H3.2342L4.75803 32.3319L6.21427 29.1089H7.47389Z" fill="white"/>
<path d="M12.666 29.1089V34.8221H11.5477V32.2884C11.4698 32.3588 11.3674 32.4271 11.2404 32.4934C11.1176 32.5555 10.9824 32.6114 10.8349 32.661C10.6915 32.7066 10.542 32.7438 10.3864 32.7728C10.2348 32.7977 10.0873 32.8101 9.94396 32.8101C9.22711 32.8101 8.69664 32.6279 8.35255 32.2636C8.01255 31.8951 7.84255 31.3197 7.84255 30.5372V29.1089H8.96699V30.5496C8.96699 30.8146 8.98952 31.0299 9.03458 31.1955C9.08374 31.3569 9.15747 31.4832 9.25578 31.5743C9.35409 31.6654 9.47698 31.7254 9.62445 31.7544C9.77601 31.7834 9.9542 31.7978 10.159 31.7978C10.2942 31.7978 10.4294 31.7875 10.5646 31.7668C10.7038 31.742 10.8349 31.7088 10.9578 31.6674C11.0848 31.6219 11.1995 31.5681 11.3019 31.506C11.4043 31.4439 11.4862 31.3756 11.5477 31.3011V29.1089H12.666Z" fill="white"/>
<path d="M15.0869 32.1394C15.2671 33.282 15.9 33.8534 16.9855 33.8534C17.3337 33.8534 17.6676 33.7933 17.9871 33.6733C18.3066 33.5532 18.6322 33.3855 18.964 33.1703V34.2632C18.792 34.3791 18.622 34.4785 18.4541 34.5613C18.2902 34.6441 18.1182 34.7145 17.9379 34.7724C17.7618 34.8263 17.5733 34.8656 17.3726 34.8904C17.1719 34.9194 16.9507 34.9339 16.709 34.9339C16.2707 34.9339 15.8816 34.8511 15.5416 34.6855C15.2016 34.5158 14.9148 34.2901 14.6813 34.0086C14.4479 33.7271 14.2697 33.4042 14.1468 33.0398C14.028 32.6714 13.9686 32.2905 13.9686 31.8972C13.9686 31.4625 14.0321 31.0671 14.1591 30.7111C14.2902 30.3551 14.4724 30.0508 14.7059 29.7982C14.9394 29.5416 15.218 29.3449 15.5416 29.2083C15.8652 29.0675 16.2216 28.9971 16.6107 28.9971C16.9876 28.9971 17.3255 29.0634 17.6245 29.1959C17.9277 29.3242 18.1857 29.5188 18.3988 29.7796C18.6118 30.0404 18.7756 30.3675 18.8903 30.7608C19.005 31.1541 19.0624 31.6136 19.0624 32.1394H15.0869ZM17.9564 31.388C17.94 30.9533 17.815 30.6097 17.5815 30.3571C17.348 30.1046 17.0326 29.9783 16.6353 29.9783C16.2011 29.9783 15.857 30.1005 15.603 30.3447C15.3531 30.589 15.1893 30.9367 15.1115 31.388H17.9564Z" fill="white"/>
<path d="M25.3113 29.1089V34.8221H24.193V32.3816H21.4218V34.8221H20.3035V29.1089H21.4218V31.3632H24.193V29.1089H25.3113Z" fill="white"/>
<path d="M30.8044 31.1582L27.5479 34.9339H26.915V29.1089H28.0333V33.0026L31.3206 29.1089H31.9227V34.8221H30.8044V31.1582Z" fill="white"/>
<path d="M37.8952 29.1089V34.8221H36.7769V32.2884C36.699 32.3588 36.5966 32.4271 36.4696 32.4934C36.3467 32.5555 36.2116 32.6114 36.0641 32.661C35.9207 32.7066 35.7712 32.7438 35.6156 32.7728C35.464 32.7977 35.3165 32.8101 35.1732 32.8101C34.4563 32.8101 33.9258 32.6279 33.5817 32.2636C33.2417 31.8951 33.0717 31.3197 33.0717 30.5372V29.1089H34.1962V30.5496C34.1962 30.8146 34.2187 31.0299 34.2638 31.1955C34.3129 31.3569 34.3867 31.4832 34.485 31.5743C34.5833 31.6654 34.7062 31.7254 34.8536 31.7544C35.0052 31.7834 35.1834 31.7978 35.3882 31.7978C35.5234 31.7978 35.6586 31.7875 35.7937 31.7668C35.933 31.742 36.0641 31.7088 36.187 31.6674C36.314 31.6219 36.4287 31.5681 36.5311 31.506C36.6335 31.4439 36.7154 31.3756 36.7769 31.3011V29.1089H37.8952Z" fill="white"/>
<path d="M40.3161 32.1394C40.4963 33.282 41.1292 33.8534 42.2147 33.8534C42.5629 33.8534 42.8968 33.7933 43.2163 33.6733C43.5358 33.5532 43.8614 33.3855 44.1932 33.1703V34.2632C44.0212 34.3791 43.8512 34.4785 43.6832 34.5613C43.5194 34.6441 43.3473 34.7145 43.1671 34.7724C42.991 34.8263 42.8025 34.8656 42.6018 34.8904C42.4011 34.9194 42.1799 34.9339 41.9382 34.9339C41.4999 34.9339 41.1108 34.8511 40.7708 34.6855C40.4308 34.5158 40.144 34.2901 39.9105 34.0086C39.677 33.7271 39.4989 33.4042 39.376 33.0398C39.2572 32.6714 39.1978 32.2905 39.1978 31.8972C39.1978 31.4625 39.2613 31.0671 39.3883 30.7111C39.5193 30.3551 39.7016 30.0508 39.9351 29.7982C40.1686 29.5416 40.4472 29.3449 40.7708 29.2083C41.0944 29.0675 41.4508 28.9971 41.8399 28.9971C42.2168 28.9971 42.5547 29.0634 42.8537 29.1959C43.1569 29.3242 43.4149 29.5188 43.6279 29.7796C43.841 30.0404 44.0048 30.3675 44.1195 30.7608C44.2342 31.1541 44.2915 31.6136 44.2915 32.1394H40.3161ZM43.1855 31.388C43.1692 30.9533 43.0442 30.6097 42.8107 30.3571C42.5772 30.1046 42.2618 29.9783 41.8645 29.9783C41.4303 29.9783 41.0862 30.1005 40.8322 30.3447C40.5823 30.589 40.4185 30.9367 40.3407 31.388H43.1855Z" fill="white"/>
<path d="M49.7847 34.6048C49.6905 34.6503 49.5778 34.6938 49.4468 34.7352C49.3157 34.7724 49.1743 34.8056 49.0228 34.8345C48.8712 34.8677 48.7156 34.8925 48.5558 34.9091C48.4001 34.9256 48.2486 34.9339 48.1011 34.9339C47.6792 34.9339 47.2921 34.8635 46.9398 34.7228C46.5875 34.582 46.2844 34.3853 46.0304 34.1328C45.7806 33.8803 45.5839 33.5801 45.4406 33.2324C45.3013 32.8805 45.2316 32.4954 45.2316 32.0773C45.2316 31.6053 45.2972 31.181 45.4283 30.8043C45.5594 30.4234 45.7457 30.1005 45.9874 29.8355C46.2291 29.5664 46.522 29.3594 46.8661 29.2145C47.2102 29.0696 47.5973 28.9971 48.0274 28.9971C48.1912 28.9971 48.3428 29.0075 48.4821 29.0282C48.6213 29.0448 48.7545 29.0696 48.8815 29.1027C49.0125 29.1358 49.1416 29.1772 49.2686 29.2269C49.3956 29.2766 49.5266 29.3325 49.6618 29.3946V30.5993C49.5021 30.4917 49.3525 30.4027 49.2133 30.3323C49.0781 30.2578 48.947 30.1998 48.82 30.1584C48.6971 30.1129 48.5763 30.0818 48.4575 30.0653C48.3428 30.0487 48.224 30.0404 48.1011 30.0404C47.8471 30.0404 47.6137 30.088 47.4006 30.1833C47.1876 30.2743 47.0054 30.4047 46.8538 30.5745C46.7022 30.7442 46.5834 30.9471 46.4974 31.1831C46.4155 31.419 46.3745 31.6819 46.3745 31.9717C46.3745 32.2698 46.4196 32.5368 46.5097 32.7728C46.5998 33.0047 46.7289 33.2013 46.8968 33.3628C47.0648 33.5242 47.2655 33.6484 47.499 33.7354C47.7365 33.8223 48.0008 33.8658 48.2916 33.8658C48.5292 33.8658 48.7668 33.8347 49.0044 33.7726C49.2419 33.7105 49.5021 33.6153 49.7847 33.487V34.6048Z" fill="white"/>
<path d="M52.2732 31.4128C52.519 31.4128 52.7299 31.3466 52.9061 31.2141C53.0822 31.0816 53.2399 30.885 53.3792 30.6242L53.7172 29.9907C53.8114 29.8169 53.9035 29.674 53.9937 29.5623C54.0879 29.4463 54.1862 29.3553 54.2886 29.289C54.3951 29.2228 54.5118 29.1772 54.6388 29.1524C54.7658 29.1234 54.9112 29.1089 55.0751 29.1089H55.3147V30.1274H55.0628C54.9317 30.1274 54.8293 30.1626 54.7556 30.2329C54.6818 30.3033 54.6122 30.3965 54.5467 30.5124L54.2579 31.034C54.1882 31.1624 54.1186 31.27 54.049 31.3569C53.9793 31.4439 53.9076 31.5184 53.8339 31.5805C53.7602 31.6385 53.6823 31.6881 53.6004 31.7295C53.5185 31.7709 53.4284 31.8103 53.3301 31.8475C53.4693 31.8889 53.5963 31.9448 53.711 32.0152C53.8257 32.0814 53.9343 32.1684 54.0367 32.276C54.1432 32.3795 54.2476 32.5079 54.35 32.661C54.4524 32.8142 54.561 32.9964 54.6757 33.2075L55.5298 34.8221H54.3009L53.5328 33.2696C53.3526 32.9136 53.1498 32.6631 52.9245 32.5182C52.6992 32.3733 52.478 32.3009 52.2609 32.3009H52.1196V34.8221H51.0013V29.1089H52.1196V31.4128H52.2732Z" fill="white"/>
<path d="M59.1612 28.9971C59.6036 28.9971 60.0111 29.0696 60.3839 29.2145C60.7608 29.3594 61.0844 29.5623 61.3547 29.8231C61.6292 30.0798 61.8422 30.3861 61.9938 30.7422C62.1453 31.0982 62.2211 31.4874 62.2211 31.9096C62.2211 32.3609 62.1453 32.7728 61.9938 33.1454C61.8463 33.518 61.6374 33.8368 61.367 34.1018C61.1008 34.3667 60.7792 34.5716 60.4023 34.7165C60.0296 34.8614 59.6158 34.9339 59.1612 34.9339C58.727 34.9339 58.3276 34.8594 57.963 34.7103C57.5984 34.5572 57.283 34.3481 57.0167 34.0831C56.7546 33.814 56.5498 33.4952 56.4023 33.1268C56.2548 32.7542 56.1811 32.3485 56.1811 31.9096C56.1811 31.4998 56.2569 31.1189 56.4084 30.767C56.56 30.411 56.7689 30.1025 57.0352 29.8417C57.3055 29.5767 57.6209 29.3697 57.9814 29.2207C58.346 29.0717 58.7392 28.9971 59.1612 28.9971ZM59.1489 30.0156C58.8867 30.0156 58.643 30.0632 58.4177 30.1584C58.1965 30.2536 58.004 30.3861 57.8401 30.5559C57.6762 30.7215 57.5493 30.9202 57.4591 31.152C57.369 31.3839 57.324 31.6364 57.324 31.9096C57.324 32.2118 57.367 32.4872 57.453 32.7356C57.5431 32.984 57.6681 33.1972 57.8278 33.3752C57.9917 33.5491 58.1842 33.6836 58.4054 33.7788C58.6307 33.8741 58.8785 33.9217 59.1489 33.9217C59.4438 33.9217 59.7101 33.8761 59.9477 33.785C60.1852 33.6898 60.386 33.5573 60.5498 33.3876C60.7178 33.2137 60.8468 33.0047 60.9369 32.7604C61.027 32.512 61.0721 32.2326 61.0721 31.9221C61.0721 31.6447 61.0229 31.3901 60.9246 31.1582C60.8304 30.9264 60.6973 30.7256 60.5252 30.5559C60.3573 30.3861 60.1545 30.2536 59.9169 30.1584C59.6834 30.0632 59.4274 30.0156 59.1489 30.0156Z" fill="white"/>
<path d="M64.6052 30.1274V34.8221H63.4869V29.1089H67.0875V30.1274H64.6052Z" fill="white"/>
<path d="M70.6636 28.9971C71.106 28.9971 71.5136 29.0696 71.8864 29.2145C72.2632 29.3594 72.5868 29.5623 72.8572 29.8231C73.1316 30.0798 73.3446 30.3861 73.4962 30.7422C73.6478 31.0982 73.7235 31.4874 73.7235 31.9096C73.7235 32.3609 73.6478 32.7728 73.4962 33.1454C73.3487 33.518 73.1398 33.8368 72.8695 34.1018C72.6032 34.3667 72.2817 34.5716 71.9048 34.7165C71.532 34.8614 71.1183 34.9339 70.6636 34.9339C70.2294 34.9339 69.83 34.8594 69.4654 34.7103C69.1009 34.5572 68.7854 34.3481 68.5192 34.0831C68.257 33.814 68.0522 33.4952 67.9047 33.1268C67.7573 32.7542 67.6835 32.3485 67.6835 31.9096C67.6835 31.4998 67.7593 31.1189 67.9109 30.767C68.0624 30.411 68.2714 30.1025 68.5376 29.8417C68.808 29.5767 69.1234 29.3697 69.4839 29.2207C69.8484 29.0717 70.2417 28.9971 70.6636 28.9971ZM70.6513 30.0156C70.3892 30.0156 70.1454 30.0632 69.9201 30.1584C69.6989 30.2536 69.5064 30.3861 69.3425 30.5559C69.1787 30.7215 69.0517 30.9202 68.9616 31.152C68.8715 31.3839 68.8264 31.6364 68.8264 31.9096C68.8264 32.2118 68.8694 32.4872 68.9554 32.7356C69.0456 32.984 69.1705 33.1972 69.3303 33.3752C69.4941 33.5491 69.6866 33.6836 69.9078 33.7788C70.1331 33.8741 70.381 33.9217 70.6513 33.9217C70.9463 33.9217 71.2125 33.8761 71.4501 33.785C71.6877 33.6898 71.8884 33.5573 72.0523 33.3876C72.2202 33.2137 72.3492 33.0047 72.4394 32.7604C72.5295 32.512 72.5745 32.2326 72.5745 31.9221C72.5745 31.6447 72.5254 31.3901 72.4271 31.1582C72.3329 30.9264 72.1997 30.7256 72.0277 30.5559C71.8597 30.3861 71.657 30.2536 71.4194 30.1584C71.1859 30.0632 70.9299 30.0156 70.6513 30.0156Z" fill="white"/>
<path d="M7.03148 49.1033C6.93727 49.1489 6.82462 49.1923 6.69354 49.2337C6.56246 49.271 6.42113 49.3041 6.26957 49.3331C6.11801 49.3662 5.96235 49.3911 5.80259 49.4076C5.64693 49.4242 5.49537 49.4325 5.3479 49.4325C4.92598 49.4325 4.53888 49.3621 4.1866 49.2213C3.83431 49.0806 3.53119 48.8839 3.27721 48.6314C3.02734 48.3788 2.83072 48.0787 2.68735 47.7309C2.54807 47.379 2.47843 46.994 2.47843 46.5759C2.47843 46.1039 2.54397 45.6796 2.67506 45.3028C2.80614 44.9219 2.99252 44.599 3.2342 44.3341C3.47589 44.065 3.76877 43.858 4.11286 43.7131C4.45695 43.5682 4.84405 43.4957 5.27417 43.4957C5.43802 43.4957 5.58958 43.5061 5.72886 43.5268C5.86813 43.5433 6.00126 43.5682 6.12825 43.6013C6.25933 43.6344 6.38836 43.6758 6.51535 43.7255C6.64233 43.7752 6.77342 43.8311 6.9086 43.8932V45.0979C6.74884 44.9903 6.59932 44.9012 6.46005 44.8309C6.32487 44.7563 6.19379 44.6984 6.0668 44.657C5.94391 44.6115 5.82307 44.5804 5.70428 44.5638C5.58958 44.5473 5.47079 44.539 5.3479 44.539C5.09393 44.539 4.86044 44.5866 4.64743 44.6818C4.43442 44.7729 4.25214 44.9033 4.10057 45.0731C3.94901 45.2428 3.83022 45.4457 3.74419 45.6816C3.66227 45.9176 3.6213 46.1805 3.6213 46.4703C3.6213 46.7684 3.66636 47.0354 3.75648 47.2714C3.8466 47.5032 3.97564 47.6999 4.14358 47.8613C4.31153 48.0228 4.51225 48.147 4.74574 48.2339C4.98333 48.3209 5.24754 48.3643 5.53838 48.3643C5.77596 48.3643 6.01355 48.3333 6.25114 48.2712C6.48872 48.2091 6.74884 48.1139 7.03148 47.9855V49.1033Z" fill="white"/>
<path d="M10.7243 45.8741V45.5699C10.7243 45.2097 10.6403 44.953 10.4724 44.7998C10.3044 44.6425 10.0484 44.5638 9.70433 44.5638C9.39711 44.5638 9.08988 44.6404 8.78266 44.7936C8.47953 44.9426 8.19279 45.1807 7.92243 45.5078V44.272C8.36074 43.7545 8.98543 43.4957 9.7965 43.4957C10.0832 43.4957 10.3515 43.533 10.6014 43.6075C10.8513 43.682 11.0684 43.7959 11.2527 43.9491C11.4371 44.1022 11.5825 44.2989 11.689 44.539C11.7955 44.775 11.8487 45.0544 11.8487 45.3773V48.3147C11.8487 48.4223 11.8651 48.4989 11.8979 48.5444C11.9348 48.5858 11.988 48.6065 12.0577 48.6065C12.115 48.6065 12.1969 48.5796 12.3034 48.5258C12.4099 48.472 12.5267 48.3975 12.6537 48.3022V48.9916C12.5267 49.0785 12.414 49.1509 12.3157 49.2089C12.2215 49.2627 12.1334 49.3062 12.0515 49.3393C11.9696 49.3724 11.8897 49.3952 11.8119 49.4076C11.7381 49.4242 11.6583 49.4325 11.5722 49.4325C11.3265 49.4325 11.1339 49.389 10.9947 49.3021C10.8595 49.211 10.7653 49.0599 10.712 48.8487C10.4662 49.0474 10.2164 49.1944 9.9624 49.2896C9.70843 49.3849 9.45241 49.4325 9.19434 49.4325C8.98543 49.4325 8.79495 49.3952 8.6229 49.3207C8.45495 49.242 8.30953 49.1385 8.18664 49.0102C8.06376 48.8819 7.96954 48.7349 7.904 48.5693C7.83846 48.3995 7.80569 48.2215 7.80569 48.0352C7.80569 47.7744 7.8528 47.5529 7.94701 47.3708C8.04123 47.1886 8.17231 47.0313 8.34026 46.8988C8.50821 46.7622 8.71097 46.6421 8.94856 46.5386C9.18614 46.4351 9.44831 46.3316 9.73505 46.2281L10.7243 45.8741ZM10.7243 46.4951C10.4867 46.5779 10.2594 46.6628 10.0423 46.7498C9.82927 46.8367 9.64084 46.9319 9.47698 47.0354C9.31313 47.1389 9.18205 47.2548 9.08374 47.3832C8.98952 47.5115 8.94241 47.6606 8.94241 47.8303C8.94241 47.9462 8.9629 48.0538 9.00386 48.1532C9.04482 48.2526 9.10012 48.3374 9.16976 48.4078C9.2394 48.4782 9.32337 48.5341 9.42168 48.5755C9.52409 48.6127 9.63264 48.6314 9.74734 48.6314C9.92348 48.6314 10.0914 48.59 10.2512 48.5072C10.415 48.4244 10.5727 48.3105 10.7243 48.1656V46.4951Z" fill="white"/>
<path d="M14.9271 43.6075L16.6783 47.1348L18.3373 43.6075H19.4679L19.8734 49.3207H18.8166L18.4602 45.427L16.6783 49.3207L14.7612 45.3898L14.4724 49.3207H13.4156L13.7965 43.6075H14.9271Z" fill="white"/>
<path d="M23.8428 43.4957C24.2852 43.4957 24.6927 43.5682 25.0655 43.7131C25.4424 43.858 25.766 44.0608 26.0363 44.3216C26.3108 44.5783 26.5238 44.8847 26.6754 45.2407C26.8269 45.5968 26.9027 45.9859 26.9027 46.4082C26.9027 46.8595 26.8269 47.2714 26.6754 47.644C26.5279 48.0166 26.319 48.3354 26.0486 48.6003C25.7824 48.8653 25.4608 49.0702 25.0839 49.2151C24.7112 49.36 24.2974 49.4325 23.8428 49.4325C23.4085 49.4325 23.0092 49.3579 22.6446 49.2089C22.28 49.0557 21.9646 48.8467 21.6983 48.5817C21.4362 48.3126 21.2314 47.9938 21.0839 47.6254C20.9364 47.2528 20.8627 46.847 20.8627 46.4082C20.8627 45.9983 20.9385 45.6175 21.09 45.2656C21.2416 44.9095 21.4505 44.6011 21.7168 44.3403C21.9871 44.0753 22.3025 43.8683 22.663 43.7193C23.0276 43.5702 23.4208 43.4957 23.8428 43.4957ZM23.8305 44.5142C23.5683 44.5142 23.3246 44.5618 23.0993 44.657C22.8781 44.7522 22.6855 44.8847 22.5217 45.0544C22.3578 45.22 22.2309 45.4187 22.1407 45.6506C22.0506 45.8824 22.0056 46.135 22.0056 46.4082C22.0056 46.7104 22.0486 46.9857 22.1346 47.2341C22.2247 47.4825 22.3496 47.6957 22.5094 47.8738C22.6733 48.0476 22.8658 48.1822 23.087 48.2774C23.3123 48.3726 23.5601 48.4202 23.8305 48.4202C24.1254 48.4202 24.3917 48.3747 24.6292 48.2836C24.8668 48.1884 25.0675 48.0559 25.2314 47.8862C25.3994 47.7123 25.5284 47.5032 25.6185 47.259C25.7086 47.0106 25.7537 46.7311 25.7537 46.4206C25.7537 46.1432 25.7045 45.8886 25.6062 45.6568C25.512 45.425 25.3789 45.2242 25.2068 45.0544C25.0389 44.8847 24.8361 44.7522 24.5985 44.657C24.365 44.5618 24.109 44.5142 23.8305 44.5142Z" fill="white"/>
<path d="M32.8628 43.6075L28.8628 52.2456H27.6155L29.5387 48.0973L27.3512 43.6075H28.6231L30.147 46.8305L31.6032 43.6075H32.8628Z" fill="white"/>
<path d="M38.6939 43.6075V49.3207H37.5756V44.6259H34.8045V49.3207H33.6862V43.6075H38.6939Z" fill="white"/>
<path d="M42.2393 43.6075C43.2675 43.6075 44.054 43.8559 44.5988 44.3527C45.1477 44.8495 45.4221 45.5678 45.4221 46.5076C45.4221 46.9381 45.3504 47.3335 45.2071 47.6937C45.0678 48.0497 44.8691 48.3581 44.6111 48.619C44.3571 48.8756 44.054 49.0764 43.7017 49.2213C43.3535 49.3621 42.9705 49.4325 42.5527 49.4325C42.3683 49.4325 42.1881 49.4118 42.0119 49.3704C41.8358 49.3331 41.6371 49.2689 41.4159 49.1779V52.2456H40.2976V43.6075H42.2393ZM41.4159 44.6259V48.1656C41.7641 48.3354 42.1164 48.4202 42.4728 48.4202C42.7349 48.4202 42.9746 48.3726 43.1917 48.2774C43.4129 48.178 43.6034 48.0435 43.7631 47.8738C43.9229 47.704 44.0478 47.5012 44.1379 47.2652C44.2281 47.0292 44.2731 46.7725 44.2731 46.4951C44.2731 46.2012 44.226 45.9383 44.1318 45.7065C44.0376 45.4746 43.9065 45.2801 43.7385 45.1227C43.5747 44.9613 43.3801 44.8391 43.1548 44.7563C42.9336 44.6694 42.694 44.6259 42.4359 44.6259H41.4159Z" fill="white"/>
<path d="M49.115 45.8741V45.5699C49.115 45.2097 49.031 44.953 48.863 44.7998C48.6951 44.6425 48.4391 44.5638 48.095 44.5638C47.7877 44.5638 47.4805 44.6404 47.1733 44.7936C46.8702 44.9426 46.5834 45.1807 46.3131 45.5078V44.272C46.7514 43.7545 47.3761 43.4957 48.1871 43.4957C48.4739 43.4957 48.7422 43.533 48.9921 43.6075C49.2419 43.682 49.459 43.7959 49.6434 43.9491C49.8277 44.1022 49.9731 44.2989 50.0796 44.539C50.1861 44.775 50.2394 45.0544 50.2394 45.3773V48.3147C50.2394 48.4223 50.2558 48.4989 50.2885 48.5444C50.3254 48.5858 50.3787 48.6065 50.4483 48.6065C50.5057 48.6065 50.5876 48.5796 50.6941 48.5258C50.8006 48.472 50.9173 48.3975 51.0443 48.3022V48.9916C50.9173 49.0785 50.8047 49.1509 50.7064 49.2089C50.6122 49.2627 50.5241 49.3062 50.4422 49.3393C50.3602 49.3724 50.2804 49.3952 50.2025 49.4076C50.1288 49.4242 50.0489 49.4325 49.9629 49.4325C49.7171 49.4325 49.5246 49.389 49.3853 49.3021C49.2501 49.211 49.1559 49.0599 49.1027 48.8487C48.8569 49.0474 48.607 49.1944 48.353 49.2896C48.0991 49.3849 47.843 49.4325 47.585 49.4325C47.3761 49.4325 47.1856 49.3952 47.0135 49.3207C46.8456 49.242 46.7002 49.1385 46.5773 49.0102C46.4544 48.8819 46.3602 48.7349 46.2946 48.5693C46.2291 48.3995 46.1963 48.2215 46.1963 48.0352C46.1963 47.7744 46.2434 47.5529 46.3377 47.3708C46.4319 47.1886 46.563 47.0313 46.7309 46.8988C46.8988 46.7622 47.1016 46.6421 47.3392 46.5386C47.5768 46.4351 47.839 46.3316 48.1257 46.2281L49.115 45.8741ZM49.115 46.4951C48.8774 46.5779 48.65 46.6628 48.4329 46.7498C48.2199 46.8367 48.0315 46.9319 47.8676 47.0354C47.7038 47.1389 47.5727 47.2548 47.4744 47.3832C47.3802 47.5115 47.3331 47.6606 47.3331 47.8303C47.3331 47.9462 47.3535 48.0538 47.3945 48.1532C47.4355 48.2526 47.4908 48.3374 47.5604 48.4078C47.63 48.4782 47.714 48.5341 47.8123 48.5755C47.9147 48.6127 48.0233 48.6314 48.138 48.6314C48.3141 48.6314 48.4821 48.59 48.6418 48.5072C48.8057 48.4244 48.9634 48.3105 49.115 48.1656V46.4951Z" fill="white"/>
<path d="M52.009 49.3207V43.6075H54.1473C54.4545 43.6075 54.7289 43.6448 54.9706 43.7193C55.2164 43.7897 55.4233 43.8932 55.5912 44.0298C55.7633 44.1623 55.8944 44.3217 55.9845 44.5079C56.0787 44.6942 56.1258 44.8992 56.1258 45.1227C56.1258 45.2883 56.1012 45.4415 56.0521 45.5823C56.0029 45.7189 55.9394 45.841 55.8616 45.9487C55.7837 46.0563 55.6936 46.1495 55.5912 46.2281C55.4929 46.3068 55.3926 46.3709 55.2901 46.4206C55.4171 46.4786 55.538 46.5448 55.6527 46.6193C55.7715 46.6897 55.8759 46.7767 55.966 46.8802C56.0562 46.9837 56.1278 47.1058 56.1811 47.2466C56.2343 47.3832 56.261 47.5446 56.261 47.7309C56.261 47.9296 56.2262 48.1242 56.1565 48.3147C56.091 48.5051 55.9824 48.6748 55.8309 48.8239C55.6793 48.9729 55.4806 49.093 55.2348 49.1841C54.9932 49.2751 54.6941 49.3207 54.3378 49.3207H52.009ZM53.1273 44.6259V46.0915H53.9691C54.2804 46.0915 54.5262 46.0315 54.7064 45.9114C54.8867 45.7872 54.9768 45.5719 54.9768 45.2656C54.9768 45.1496 54.9461 45.0524 54.8846 44.9737C54.8232 44.8909 54.7433 44.8247 54.645 44.775C54.5467 44.7212 54.4381 44.6839 54.3193 44.6632C54.2005 44.6384 54.0838 44.6259 53.9691 44.6259H53.1273ZM53.1273 46.8429V48.3022H54.1473C54.2865 48.3022 54.4156 48.2898 54.5344 48.265C54.6532 48.236 54.7556 48.1925 54.8416 48.1346C54.9276 48.0725 54.9952 47.9959 55.0444 47.9048C55.0935 47.8096 55.1181 47.6957 55.1181 47.5633C55.1181 47.4391 55.0853 47.3335 55.0198 47.2466C54.9542 47.1555 54.8621 47.081 54.7433 47.023C54.6286 46.9609 54.4914 46.9154 54.3316 46.8864C54.1759 46.8574 54.006 46.8429 53.8216 46.8429H53.1273Z" fill="white"/>
<path d="M59.4008 43.4957H59.8063L62.2334 49.3207H61.0352L59.5667 45.5574L58.0306 49.3207H56.7955L59.4008 43.4957Z" fill="white"/>
<path d="M63.9108 46.638C64.0911 47.7806 64.724 48.3519 65.8095 48.3519C66.1577 48.3519 66.4915 48.2919 66.811 48.1718C67.1305 48.0518 67.4562 47.8841 67.788 47.6688V48.7618C67.616 48.8777 67.446 48.9771 67.278 49.0599C67.1142 49.1427 66.9421 49.213 66.7619 49.271C66.5857 49.3248 66.3973 49.3642 66.1966 49.389C65.9959 49.418 65.7747 49.4325 65.533 49.4325C65.0947 49.4325 64.7055 49.3497 64.3655 49.1841C64.0255 49.0143 63.7388 48.7887 63.5053 48.5072C63.2718 48.2257 63.0936 47.9027 62.9707 47.5384C62.8519 47.17 62.7925 46.7891 62.7925 46.3958C62.7925 45.9611 62.856 45.5657 62.983 45.2097C63.1141 44.8536 63.2964 44.5494 63.5299 44.2968C63.7634 44.0401 64.0419 43.8435 64.3655 43.7069C64.6891 43.5661 65.0455 43.4957 65.4347 43.4957C65.8115 43.4957 66.1495 43.562 66.4485 43.6944C66.7516 43.8228 67.0097 44.0174 67.2227 44.2782C67.4357 44.539 67.5996 44.8661 67.7143 45.2594C67.829 45.6527 67.8863 46.1122 67.8863 46.638H63.9108ZM66.7803 45.8866C66.7639 45.4519 66.639 45.1082 66.4055 44.8557C66.172 44.6032 65.8566 44.4769 65.4592 44.4769C65.025 44.4769 64.6809 44.599 64.427 44.8433C64.1771 45.0875 64.0132 45.4353 63.9354 45.8866H66.7803Z" fill="white"/>
<path d="M74.1352 43.6075V49.3207H73.0169V46.8802H70.2458V49.3207H69.1275V43.6075H70.2458V45.8617H73.0169V43.6075H74.1352Z" fill="white"/>
<path d="M79.6284 45.6568L76.3718 49.4325H75.7389V43.6075H76.8572V47.5012L80.1445 43.6075H80.7467V49.3207H79.6284V45.6568Z" fill="white"/>
<path d="M82.5654 48.0973C82.7211 47.8613 82.885 47.6502 83.057 47.4639C83.229 47.2776 83.4257 47.1327 83.6469 47.0292C83.4584 46.9588 83.2884 46.876 83.1369 46.7808C82.9853 46.6814 82.8542 46.5655 82.7436 46.433C82.6371 46.3006 82.5552 46.1495 82.4979 45.9797C82.4405 45.8058 82.4118 45.6092 82.4118 45.3898C82.4118 45.1165 82.4753 44.8702 82.6023 44.6508C82.7334 44.4314 82.9034 44.2451 83.1123 44.0919C83.3253 43.9346 83.567 43.8145 83.8373 43.7317C84.1077 43.6489 84.3842 43.6075 84.6669 43.6075H86.7683V49.3207H85.65V47.2341H85.3305C85.183 47.2341 85.0396 47.2486 84.9003 47.2776C84.7652 47.3066 84.6341 47.3563 84.5071 47.4266C84.3842 47.4929 84.2634 47.586 84.1446 47.7061C84.0258 47.822 83.9111 47.9669 83.8005 48.1408L83.057 49.3207H81.7359L82.5654 48.0973ZM85.65 46.3461V44.6259H84.6669C84.3064 44.6259 84.0319 44.6963 83.8435 44.8371C83.6551 44.9737 83.5608 45.1786 83.5608 45.4519C83.5608 45.5554 83.5793 45.6609 83.6161 45.7686C83.6571 45.8721 83.7206 45.9673 83.8066 46.0542C83.8967 46.1412 84.0114 46.2116 84.1507 46.2654C84.2941 46.3192 84.4661 46.3461 84.6669 46.3461H85.65Z" fill="white"/>
</svg>
