<svg width="504" height="408" viewBox="0 0 504 408" fill="none" xmlns="http://www.w3.org/2000/svg">
<g clip-path="url(#clip0_1006_206)">
<rect width="504" height="408" fill="white"/>
<path d="M447.597 269.132C433.436 294.801 401.147 304.131 375.478 289.97C349.809 275.809 340.48 243.52 354.641 217.851C368.802 192.182 434.947 153.814 457.859 140.641C457.859 175 461.758 243.463 447.597 269.132Z" fill="#5498FF"/>
<path d="M105.566 335.582C104.069 336.298 102.279 336.982 100.195 337.633C98.112 338.219 95.8659 338.74 93.457 339.195C91.0482 339.716 88.5742 340.107 86.0352 340.367C83.5612 340.628 81.1523 340.758 78.8086 340.758C72.1029 340.758 65.9505 339.651 60.3516 337.438C54.7526 335.224 49.9349 332.132 45.8984 328.16C41.9271 324.189 38.8021 319.469 36.5234 314C34.3099 308.466 33.2031 302.411 33.2031 295.836C33.2031 288.414 34.2448 281.741 36.3281 275.816C38.4115 269.827 41.3737 264.749 45.2148 260.582C49.056 256.35 53.7109 253.095 59.1797 250.816C64.6484 248.538 70.8008 247.398 77.6367 247.398C80.2409 247.398 82.6497 247.561 84.8633 247.887C87.0768 248.147 89.1927 248.538 91.2109 249.059C93.2943 249.579 95.3451 250.23 97.3633 251.012C99.3815 251.793 101.465 252.672 103.613 253.648V272.594C101.074 270.901 98.6979 269.501 96.4844 268.395C94.3359 267.223 92.2526 266.311 90.2344 265.66C88.2812 264.944 86.3607 264.456 84.4727 264.195C82.6497 263.935 80.7617 263.805 78.8086 263.805C74.7721 263.805 71.0612 264.553 67.6758 266.051C64.2904 267.483 61.3932 269.534 58.9844 272.203C56.5755 274.872 54.6875 278.062 53.3203 281.773C52.0182 285.484 51.3672 289.618 51.3672 294.176C51.3672 298.863 52.0833 303.062 53.5156 306.773C54.9479 310.419 56.9987 313.512 59.668 316.051C62.3372 318.59 65.5273 320.543 69.2383 321.91C73.0143 323.277 77.2135 323.961 81.8359 323.961C85.612 323.961 89.388 323.473 93.1641 322.496C96.9401 321.52 101.074 320.022 105.566 318.004V335.582ZM167.285 247.398C174.316 247.398 180.794 248.538 186.719 250.816C192.708 253.095 197.852 256.285 202.148 260.387C206.51 264.423 209.896 269.241 212.305 274.84C214.714 280.439 215.918 286.559 215.918 293.199C215.918 300.296 214.714 306.773 212.305 312.633C209.961 318.492 206.641 323.505 202.344 327.672C198.112 331.839 193.001 335.061 187.012 337.34C181.087 339.618 174.512 340.758 167.285 340.758C160.384 340.758 154.036 339.586 148.242 337.242C142.448 334.833 137.435 331.546 133.203 327.379C129.036 323.147 125.781 318.134 123.438 312.34C121.094 306.48 119.922 300.1 119.922 293.199C119.922 286.754 121.126 280.764 123.535 275.23C125.944 269.632 129.264 264.781 133.496 260.68C137.793 256.513 142.806 253.258 148.535 250.914C154.329 248.57 160.579 247.398 167.285 247.398ZM167.09 263.414C162.923 263.414 159.049 264.163 155.469 265.66C151.953 267.158 148.893 269.241 146.289 271.91C143.685 274.514 141.667 277.639 140.234 281.285C138.802 284.931 138.086 288.902 138.086 293.199C138.086 297.952 138.77 302.281 140.137 306.188C141.569 310.094 143.555 313.447 146.094 316.246C148.698 318.98 151.758 321.096 155.273 322.594C158.854 324.091 162.793 324.84 167.09 324.84C171.777 324.84 176.009 324.124 179.785 322.691C183.561 321.194 186.751 319.111 189.355 316.441C192.025 313.707 194.076 310.419 195.508 306.578C196.94 302.672 197.656 298.277 197.656 293.395C197.656 289.033 196.875 285.029 195.312 281.383C193.815 277.737 191.699 274.579 188.965 271.91C186.296 269.241 183.073 267.158 179.297 265.66C175.586 264.163 171.517 263.414 167.09 263.414ZM310.645 249.156L247.07 384.996H227.246L257.812 319.762L223.047 249.156H243.262L267.48 299.84L290.625 249.156H310.645ZM391.309 335.582C389.811 336.298 388.021 336.982 385.938 337.633C383.854 338.219 381.608 338.74 379.199 339.195C376.79 339.716 374.316 340.107 371.777 340.367C369.303 340.628 366.895 340.758 364.551 340.758C357.845 340.758 351.693 339.651 346.094 337.438C340.495 335.224 335.677 332.132 331.641 328.16C327.669 324.189 324.544 319.469 322.266 314C320.052 308.466 318.945 302.411 318.945 295.836C318.945 288.414 319.987 281.741 322.07 275.816C324.154 269.827 327.116 264.749 330.957 260.582C334.798 256.35 339.453 253.095 344.922 250.816C350.391 248.538 356.543 247.398 363.379 247.398C365.983 247.398 368.392 247.561 370.605 247.887C372.819 248.147 374.935 248.538 376.953 249.059C379.036 249.579 381.087 250.23 383.105 251.012C385.124 251.793 387.207 252.672 389.355 253.648V272.594C386.816 270.901 384.44 269.501 382.227 268.395C380.078 267.223 377.995 266.311 375.977 265.66C374.023 264.944 372.103 264.456 370.215 264.195C368.392 263.935 366.504 263.805 364.551 263.805C360.514 263.805 356.803 264.553 353.418 266.051C350.033 267.483 347.135 269.534 344.727 272.203C342.318 274.872 340.43 278.062 339.062 281.773C337.76 285.484 337.109 289.618 337.109 294.176C337.109 298.863 337.826 303.062 339.258 306.773C340.69 310.419 342.741 313.512 345.41 316.051C348.079 318.59 351.27 320.543 354.98 321.91C358.757 323.277 362.956 323.961 367.578 323.961C371.354 323.961 375.13 323.473 378.906 322.496C382.682 321.52 386.816 320.022 391.309 318.004V335.582Z" fill="black"/>
<path d="M61.1416 57.1455C60.7673 57.3245 60.3197 57.4954 59.7988 57.6582C59.278 57.8047 58.7165 57.9349 58.1143 58.0488C57.512 58.179 56.8936 58.2767 56.2588 58.3418C55.6403 58.4069 55.0381 58.4395 54.4521 58.4395C52.7757 58.4395 51.2376 58.1628 49.8379 57.6094C48.4382 57.056 47.2337 56.2829 46.2246 55.29C45.2318 54.2972 44.4505 53.1172 43.8809 51.75C43.3275 50.3665 43.0508 48.8529 43.0508 47.209C43.0508 45.3535 43.3112 43.6852 43.832 42.2041C44.3529 40.7067 45.0934 39.4372 46.0537 38.3955C47.014 37.3376 48.1777 36.5238 49.5449 35.9541C50.9121 35.3844 52.4502 35.0996 54.1592 35.0996C54.8102 35.0996 55.4124 35.1403 55.9658 35.2217C56.5192 35.2868 57.0482 35.3844 57.5527 35.5146C58.0736 35.6449 58.5863 35.8076 59.0908 36.0029C59.5954 36.1982 60.1162 36.418 60.6533 36.6621V41.3984C60.0186 40.9753 59.4245 40.6253 58.8711 40.3486C58.334 40.0557 57.8132 39.8278 57.3086 39.665C56.8203 39.486 56.3402 39.3639 55.8682 39.2988C55.4124 39.2337 54.9404 39.2012 54.4521 39.2012C53.443 39.2012 52.5153 39.3883 51.6689 39.7627C50.8226 40.1208 50.0983 40.6335 49.4961 41.3008C48.8939 41.9681 48.4219 42.7656 48.0801 43.6934C47.7546 44.6211 47.5918 45.6546 47.5918 46.7939C47.5918 47.9658 47.7708 49.0156 48.1289 49.9434C48.487 50.8548 48.9997 51.6279 49.667 52.2627C50.3343 52.8975 51.1318 53.3857 52.0596 53.7275C53.0036 54.0693 54.0534 54.2402 55.209 54.2402C56.153 54.2402 57.097 54.1182 58.041 53.874C58.985 53.6299 60.0186 53.2555 61.1416 52.751V57.1455ZM76.5713 35.0996C78.3291 35.0996 79.9486 35.3844 81.4297 35.9541C82.9271 36.5238 84.2129 37.3213 85.2871 38.3467C86.3776 39.3558 87.224 40.5602 87.8262 41.96C88.4284 43.3597 88.7295 44.8896 88.7295 46.5498C88.7295 48.3239 88.4284 49.9434 87.8262 51.4082C87.2402 52.873 86.4102 54.1263 85.3359 55.168C84.278 56.2096 83.0003 57.0153 81.5029 57.585C80.0218 58.1546 78.3779 58.4395 76.5713 58.4395C74.846 58.4395 73.2591 58.1465 71.8105 57.5605C70.362 56.9583 69.1087 56.1364 68.0508 55.0947C67.0091 54.0368 66.1953 52.7835 65.6094 51.335C65.0234 49.8701 64.7305 48.2751 64.7305 46.5498C64.7305 44.9385 65.0316 43.4411 65.6338 42.0576C66.236 40.6579 67.0661 39.4453 68.124 38.4199C69.1982 37.3783 70.4515 36.5645 71.8838 35.9785C73.3324 35.3926 74.8949 35.0996 76.5713 35.0996ZM76.5225 39.1035C75.4808 39.1035 74.5124 39.2907 73.6172 39.665C72.7383 40.0394 71.9733 40.5602 71.3223 41.2275C70.6712 41.8786 70.1667 42.6598 69.8086 43.5713C69.4505 44.4827 69.2715 45.4756 69.2715 46.5498C69.2715 47.738 69.4424 48.8203 69.7842 49.7969C70.1423 50.7734 70.6387 51.6117 71.2734 52.3115C71.9245 52.9951 72.6895 53.5241 73.5684 53.8984C74.4635 54.2728 75.4482 54.46 76.5225 54.46C77.6943 54.46 78.7523 54.2809 79.6963 53.9229C80.6403 53.5485 81.4378 53.0277 82.0889 52.3604C82.7562 51.6768 83.2689 50.8548 83.627 49.8945C83.985 48.918 84.1641 47.8193 84.1641 46.5986C84.1641 45.5081 83.9688 44.5072 83.5781 43.5957C83.2038 42.6842 82.6748 41.8949 81.9912 41.2275C81.3239 40.5602 80.5182 40.0394 79.5742 39.665C78.6465 39.2907 77.6292 39.1035 76.5225 39.1035ZM98.0068 58H93.5635V35.5391H98.0068V44.6455H101.718C101.946 43.2783 102.393 42.0088 103.061 40.8369C103.744 39.665 104.599 38.6559 105.624 37.8096C106.649 36.9632 107.821 36.304 109.14 35.832C110.474 35.3438 111.898 35.0996 113.412 35.0996C115.17 35.0996 116.789 35.3844 118.271 35.9541C119.768 36.5238 121.054 37.3213 122.128 38.3467C123.218 39.3558 124.065 40.5602 124.667 41.96C125.269 43.3597 125.57 44.8896 125.57 46.5498C125.57 48.3239 125.269 49.9434 124.667 51.4082C124.081 52.873 123.251 54.1263 122.177 55.168C121.119 56.2096 119.841 57.0153 118.344 57.585C116.863 58.1546 115.219 58.4395 113.412 58.4395C111.866 58.4395 110.434 58.2035 109.115 57.7314C107.797 57.2594 106.625 56.5921 105.6 55.7295C104.59 54.8669 103.752 53.8333 103.085 52.6289C102.434 51.4245 101.994 50.098 101.767 48.6494H98.0068V58ZM113.363 39.1035C112.322 39.1035 111.353 39.2907 110.458 39.665C109.579 40.0394 108.814 40.5602 108.163 41.2275C107.512 41.8786 107.007 42.6598 106.649 43.5713C106.291 44.4827 106.112 45.4756 106.112 46.5498C106.112 47.738 106.283 48.8203 106.625 49.7969C106.983 50.7734 107.479 51.6117 108.114 52.3115C108.765 52.9951 109.53 53.5241 110.409 53.8984C111.304 54.2728 112.289 54.46 113.363 54.46C114.535 54.46 115.593 54.2809 116.537 53.9229C117.481 53.5485 118.279 53.0277 118.93 52.3604C119.597 51.6768 120.11 50.8548 120.468 49.8945C120.826 48.918 121.005 47.8193 121.005 46.5986C121.005 45.5081 120.81 44.5072 120.419 43.5957C120.045 42.6842 119.516 41.8949 118.832 41.2275C118.165 40.5602 117.359 40.0394 116.415 39.665C115.487 39.2907 114.47 39.1035 113.363 39.1035ZM133.041 48.0879V44.6455C134.311 44.6455 135.409 44.613 136.337 44.5479C137.281 44.4665 138.062 44.32 138.681 44.1084C139.299 43.8805 139.763 43.5713 140.072 43.1807C140.382 42.79 140.536 42.2773 140.536 41.6426C140.536 40.8125 140.121 40.1859 139.291 39.7627C138.477 39.3232 137.305 39.1035 135.775 39.1035C134.392 39.1035 133.106 39.307 131.918 39.7139C130.73 40.1045 129.721 40.5521 128.891 41.0566V37.248C129.281 36.9551 129.778 36.6784 130.38 36.418C130.998 36.1576 131.649 35.9297 132.333 35.7344C133.017 35.5391 133.7 35.3844 134.384 35.2705C135.084 35.1566 135.718 35.0996 136.288 35.0996C137.476 35.0996 138.599 35.2298 139.657 35.4902C140.715 35.7344 141.643 36.1006 142.44 36.5889C143.238 37.0771 143.865 37.6875 144.32 38.4199C144.792 39.1361 145.028 39.9661 145.028 40.9102C145.028 42.2285 144.63 43.3516 143.832 44.2793C143.035 45.207 141.952 45.8011 140.585 46.0615C141.203 46.1917 141.806 46.4196 142.392 46.7451C142.978 47.0544 143.507 47.4531 143.979 47.9414C144.451 48.4297 144.825 48.9912 145.102 49.626C145.395 50.2607 145.541 50.9688 145.541 51.75C145.541 53.0684 145.256 54.1589 144.687 55.0215C144.117 55.8841 143.368 56.5758 142.44 57.0967C141.529 57.6012 140.487 57.9593 139.315 58.1709C138.16 58.3825 136.996 58.4883 135.824 58.4883C135.385 58.4883 134.807 58.4476 134.091 58.3662C133.375 58.3011 132.642 58.179 131.894 58C131.145 57.8372 130.429 57.6257 129.745 57.3652C129.078 57.0885 128.573 56.763 128.231 56.3887V52.0918C128.687 52.4499 129.208 52.7754 129.794 53.0684C130.396 53.3613 131.007 53.6136 131.625 53.8252C132.243 54.0368 132.854 54.2077 133.456 54.3379C134.075 54.4518 134.62 54.5088 135.092 54.5088C136.964 54.5088 138.412 54.2402 139.438 53.7031C140.463 53.166 140.976 52.3278 140.976 51.1885C140.976 50.6188 140.821 50.1387 140.512 49.748C140.202 49.3574 139.787 49.04 139.267 48.7959C138.762 48.5518 138.184 48.3727 137.533 48.2588C136.898 48.1449 136.247 48.0879 135.58 48.0879H133.041ZM54.6475 92.0996C56.4053 92.0996 58.0247 92.3844 59.5059 92.9541C61.0033 93.5238 62.2891 94.3213 63.3633 95.3467C64.4538 96.3558 65.3001 97.5602 65.9023 98.96C66.5046 100.36 66.8057 101.89 66.8057 103.55C66.8057 105.324 66.5046 106.943 65.9023 108.408C65.3164 109.873 64.4863 111.126 63.4121 112.168C62.3542 113.21 61.0765 114.015 59.5791 114.585C58.098 115.155 56.4541 115.439 54.6475 115.439C52.9222 115.439 51.3353 115.146 49.8867 114.561C48.4382 113.958 47.1849 113.136 46.127 112.095C45.0853 111.037 44.2715 109.784 43.6855 108.335C43.0996 106.87 42.8066 105.275 42.8066 103.55C42.8066 101.938 43.1077 100.441 43.71 99.0576C44.3122 97.6579 45.1423 96.4453 46.2002 95.4199C47.2744 94.3783 48.5277 93.5645 49.96 92.9785C51.4085 92.3926 52.971 92.0996 54.6475 92.0996ZM54.5986 96.1035C53.557 96.1035 52.5885 96.2907 51.6934 96.665C50.8145 97.0394 50.0495 97.5602 49.3984 98.2275C48.7474 98.8786 48.2428 99.6598 47.8848 100.571C47.5267 101.483 47.3477 102.476 47.3477 103.55C47.3477 104.738 47.5186 105.82 47.8604 106.797C48.2184 107.773 48.7148 108.612 49.3496 109.312C50.0007 109.995 50.7656 110.524 51.6445 110.898C52.5397 111.273 53.5244 111.46 54.5986 111.46C55.7705 111.46 56.8285 111.281 57.7725 110.923C58.7165 110.549 59.514 110.028 60.165 109.36C60.8324 108.677 61.3451 107.855 61.7031 106.895C62.0612 105.918 62.2402 104.819 62.2402 103.599C62.2402 102.508 62.0449 101.507 61.6543 100.596C61.2799 99.6842 60.751 98.8949 60.0674 98.2275C59.4001 97.5602 58.5944 97.0394 57.6504 96.665C56.7227 96.2907 55.7054 96.1035 54.5986 96.1035ZM79.5498 92.5391C83.6351 92.5391 86.7601 93.5156 88.9248 95.4688C91.1058 97.4219 92.1963 100.246 92.1963 103.94C92.1963 105.633 91.9115 107.188 91.3418 108.604C90.7884 110.003 89.999 111.216 88.9736 112.241C87.9645 113.25 86.7601 114.04 85.3604 114.609C83.9769 115.163 82.4551 115.439 80.7949 115.439C80.0625 115.439 79.3464 115.358 78.6465 115.195C77.9466 115.049 77.1572 114.797 76.2783 114.438V126.499H71.835V92.5391H79.5498ZM76.2783 96.543V110.459C77.6618 111.126 79.0615 111.46 80.4775 111.46C81.5192 111.46 82.4714 111.273 83.334 110.898C84.2129 110.508 84.9697 109.979 85.6045 109.312C86.2393 108.644 86.7357 107.847 87.0938 106.919C87.4518 105.991 87.6309 104.982 87.6309 103.892C87.6309 102.736 87.4437 101.702 87.0693 100.791C86.695 99.8796 86.1742 99.1146 85.5068 98.4961C84.8558 97.8613 84.0827 97.3812 83.1875 97.0557C82.3086 96.7139 81.3564 96.543 80.3311 96.543H76.2783ZM101.669 96.543V115H97.2256V92.5391H111.532V96.543H101.669ZM124.984 101.45V100.254C124.984 98.8379 124.651 97.8288 123.983 97.2266C123.316 96.6081 122.299 96.2988 120.932 96.2988C119.711 96.2988 118.49 96.5999 117.27 97.2021C116.065 97.7881 114.926 98.724 113.852 100.01V95.1514C115.593 93.1169 118.075 92.0996 121.298 92.0996C122.437 92.0996 123.503 92.2461 124.496 92.5391C125.489 92.832 126.352 93.2796 127.084 93.8818C127.816 94.484 128.394 95.2572 128.817 96.2012C129.241 97.1289 129.452 98.2275 129.452 99.4971V111.045C129.452 111.468 129.517 111.769 129.647 111.948C129.794 112.111 130.006 112.192 130.282 112.192C130.51 112.192 130.836 112.087 131.259 111.875C131.682 111.663 132.146 111.37 132.65 110.996V113.706C132.146 114.048 131.698 114.333 131.308 114.561C130.933 114.772 130.583 114.943 130.258 115.073C129.932 115.203 129.615 115.293 129.306 115.342C129.013 115.407 128.695 115.439 128.354 115.439C127.377 115.439 126.612 115.269 126.059 114.927C125.521 114.569 125.147 113.975 124.936 113.145C123.959 113.926 122.966 114.504 121.957 114.878C120.948 115.252 119.931 115.439 118.905 115.439C118.075 115.439 117.318 115.293 116.635 115C115.967 114.691 115.39 114.284 114.901 113.779C114.413 113.275 114.039 112.697 113.778 112.046C113.518 111.379 113.388 110.679 113.388 109.946C113.388 108.921 113.575 108.05 113.949 107.334C114.324 106.618 114.844 105.999 115.512 105.479C116.179 104.941 116.985 104.469 117.929 104.062C118.873 103.656 119.914 103.249 121.054 102.842L124.984 101.45ZM124.984 103.892C124.04 104.217 123.137 104.551 122.274 104.893C121.428 105.234 120.679 105.609 120.028 106.016C119.377 106.423 118.856 106.878 118.466 107.383C118.091 107.887 117.904 108.473 117.904 109.141C117.904 109.596 117.986 110.02 118.148 110.41C118.311 110.801 118.531 111.134 118.808 111.411C119.084 111.688 119.418 111.908 119.809 112.07C120.215 112.217 120.647 112.29 121.103 112.29C121.802 112.29 122.47 112.127 123.104 111.802C123.756 111.476 124.382 111.029 124.984 110.459V103.892ZM156.576 92.5391V115H152.133V105.405H141.122V115H136.679V92.5391H141.122V101.401H152.133V92.5391H156.576ZM173.349 92.0996C175.106 92.0996 176.726 92.3844 178.207 92.9541C179.704 93.5238 180.99 94.3213 182.064 95.3467C183.155 96.3558 184.001 97.5602 184.604 98.96C185.206 100.36 185.507 101.89 185.507 103.55C185.507 105.324 185.206 106.943 184.604 108.408C184.018 109.873 183.188 111.126 182.113 112.168C181.055 113.21 179.778 114.015 178.28 114.585C176.799 115.155 175.155 115.439 173.349 115.439C171.623 115.439 170.036 115.146 168.588 114.561C167.139 113.958 165.886 113.136 164.828 112.095C163.786 111.037 162.973 109.784 162.387 108.335C161.801 106.87 161.508 105.275 161.508 103.55C161.508 101.938 161.809 100.441 162.411 99.0576C163.013 97.6579 163.843 96.4453 164.901 95.4199C165.976 94.3783 167.229 93.5645 168.661 92.9785C170.11 92.3926 171.672 92.0996 173.349 92.0996ZM173.3 96.1035C172.258 96.1035 171.29 96.2907 170.395 96.665C169.516 97.0394 168.751 97.5602 168.1 98.2275C167.449 98.8786 166.944 99.6598 166.586 100.571C166.228 101.483 166.049 102.476 166.049 103.55C166.049 104.738 166.22 105.82 166.562 106.797C166.92 107.773 167.416 108.612 168.051 109.312C168.702 109.995 169.467 110.524 170.346 110.898C171.241 111.273 172.226 111.46 173.3 111.46C174.472 111.46 175.53 111.281 176.474 110.923C177.418 110.549 178.215 110.028 178.866 109.36C179.534 108.677 180.046 107.855 180.404 106.895C180.762 105.918 180.941 104.819 180.941 103.599C180.941 102.508 180.746 101.507 180.355 100.596C179.981 99.6842 179.452 98.8949 178.769 98.2275C178.101 97.5602 177.296 97.0394 176.352 96.665C175.424 96.2907 174.407 96.1035 173.3 96.1035ZM190.341 115V92.5391H198.837C200.058 92.5391 201.148 92.6855 202.108 92.9785C203.085 93.2552 203.907 93.6621 204.574 94.1992C205.258 94.7201 205.779 95.3467 206.137 96.0791C206.511 96.8115 206.698 97.6172 206.698 98.4961C206.698 99.1471 206.601 99.7493 206.405 100.303C206.21 100.84 205.958 101.32 205.648 101.743C205.339 102.166 204.981 102.533 204.574 102.842C204.184 103.151 203.785 103.403 203.378 103.599C203.882 103.826 204.363 104.087 204.818 104.38C205.29 104.657 205.705 104.998 206.063 105.405C206.422 105.812 206.706 106.292 206.918 106.846C207.13 107.383 207.235 108.018 207.235 108.75C207.235 109.531 207.097 110.296 206.82 111.045C206.56 111.794 206.129 112.461 205.526 113.047C204.924 113.633 204.135 114.105 203.158 114.463C202.198 114.821 201.01 115 199.594 115H190.341ZM194.784 96.543V102.305H198.129C199.366 102.305 200.342 102.069 201.059 101.597C201.775 101.108 202.133 100.262 202.133 99.0576C202.133 98.6019 202.011 98.2194 201.767 97.9102C201.522 97.5846 201.205 97.3242 200.814 97.1289C200.424 96.9173 199.993 96.7708 199.521 96.6895C199.049 96.5918 198.585 96.543 198.129 96.543H194.784ZM194.784 105.259V110.996H198.837C199.39 110.996 199.903 110.947 200.375 110.85C200.847 110.736 201.254 110.565 201.596 110.337C201.938 110.093 202.206 109.792 202.401 109.434C202.597 109.059 202.694 108.612 202.694 108.091C202.694 107.603 202.564 107.188 202.304 106.846C202.043 106.488 201.677 106.195 201.205 105.967C200.749 105.723 200.204 105.544 199.569 105.43C198.951 105.316 198.275 105.259 197.543 105.259H194.784ZM62.8994 149.539L47.0059 183.499H42.0498L49.6914 167.19L41 149.539H46.0537L52.1084 162.21L57.8945 149.539H62.8994ZM83.5293 149.539V172H79.0859V162.039C78.7767 162.316 78.3698 162.584 77.8652 162.845C77.377 163.089 76.8398 163.309 76.2539 163.504C75.6842 163.683 75.0902 163.829 74.4717 163.943C73.8695 164.041 73.2835 164.09 72.7139 164.09C69.8656 164.09 67.7578 163.374 66.3906 161.941C65.0397 160.493 64.3643 158.23 64.3643 155.154V149.539H68.832V155.203C68.832 156.245 68.9215 157.091 69.1006 157.742C69.2959 158.377 69.5889 158.873 69.9795 159.231C70.3701 159.59 70.8584 159.826 71.4443 159.939C72.0465 160.053 72.7546 160.11 73.5684 160.11C74.1055 160.11 74.6426 160.07 75.1797 159.988C75.7331 159.891 76.2539 159.76 76.7422 159.598C77.2467 159.419 77.7025 159.207 78.1094 158.963C78.5163 158.719 78.8418 158.45 79.0859 158.157V149.539H83.5293ZM93.1484 161.453C93.8646 165.945 96.3792 168.191 100.692 168.191C102.076 168.191 103.402 167.955 104.672 167.483C105.941 167.011 107.235 166.352 108.554 165.506V169.803C107.87 170.258 107.195 170.649 106.527 170.975C105.876 171.3 105.193 171.577 104.477 171.805C103.777 172.016 103.028 172.171 102.23 172.269C101.433 172.382 100.554 172.439 99.5938 172.439C97.8522 172.439 96.306 172.114 94.9551 171.463C93.6042 170.796 92.4648 169.909 91.5371 168.802C90.6094 167.695 89.9014 166.425 89.4131 164.993C88.9411 163.545 88.7051 162.047 88.7051 160.501C88.7051 158.792 88.9574 157.238 89.4619 155.838C89.9827 154.438 90.707 153.242 91.6348 152.249C92.5625 151.24 93.6693 150.467 94.9551 149.93C96.2409 149.376 97.6569 149.1 99.2031 149.1C100.701 149.1 102.043 149.36 103.231 149.881C104.436 150.385 105.461 151.15 106.308 152.176C107.154 153.201 107.805 154.487 108.261 156.033C108.716 157.579 108.944 159.386 108.944 161.453H93.1484ZM104.55 158.499C104.485 156.79 103.988 155.439 103.061 154.446C102.133 153.453 100.88 152.957 99.3008 152.957C97.5755 152.957 96.2083 153.437 95.1992 154.397C94.2064 155.358 93.5553 156.725 93.2461 158.499H104.55ZM133.773 149.539V172H129.33V162.405H118.319V172H113.876V149.539H118.319V158.401H129.33V149.539H133.773ZM155.6 157.596L142.66 172.439H140.146V149.539H144.589V164.847L157.65 149.539H160.043V172H155.6V157.596ZM183.773 149.539V172H179.33V162.039C179.021 162.316 178.614 162.584 178.109 162.845C177.621 163.089 177.084 163.309 176.498 163.504C175.928 163.683 175.334 163.829 174.716 163.943C174.114 164.041 173.528 164.09 172.958 164.09C170.11 164.09 168.002 163.374 166.635 161.941C165.284 160.493 164.608 158.23 164.608 155.154V149.539H169.076V155.203C169.076 156.245 169.166 157.091 169.345 157.742C169.54 158.377 169.833 158.873 170.224 159.231C170.614 159.59 171.103 159.826 171.688 159.939C172.291 160.053 172.999 160.11 173.812 160.11C174.35 160.11 174.887 160.07 175.424 159.988C175.977 159.891 176.498 159.76 176.986 159.598C177.491 159.419 177.947 159.207 178.354 158.963C178.76 158.719 179.086 158.45 179.33 158.157V149.539H183.773ZM193.393 161.453C194.109 165.945 196.623 168.191 200.937 168.191C202.32 168.191 203.646 167.955 204.916 167.483C206.186 167.011 207.479 166.352 208.798 165.506V169.803C208.114 170.258 207.439 170.649 206.771 170.975C206.12 171.3 205.437 171.577 204.721 171.805C204.021 172.016 203.272 172.171 202.475 172.269C201.677 172.382 200.798 172.439 199.838 172.439C198.096 172.439 196.55 172.114 195.199 171.463C193.848 170.796 192.709 169.909 191.781 168.802C190.854 167.695 190.146 166.425 189.657 164.993C189.185 163.545 188.949 162.047 188.949 160.501C188.949 158.792 189.201 157.238 189.706 155.838C190.227 154.438 190.951 153.242 191.879 152.249C192.807 151.24 193.913 150.467 195.199 149.93C196.485 149.376 197.901 149.1 199.447 149.1C200.945 149.1 202.287 149.36 203.476 149.881C204.68 150.385 205.705 151.15 206.552 152.176C207.398 153.201 208.049 154.487 208.505 156.033C208.961 157.579 209.188 159.386 209.188 161.453H193.393ZM204.794 158.499C204.729 156.79 204.232 155.439 203.305 154.446C202.377 153.453 201.124 152.957 199.545 152.957C197.82 152.957 196.452 153.437 195.443 154.397C194.451 155.358 193.799 156.725 193.49 158.499H204.794ZM231.015 171.146C230.64 171.325 230.193 171.495 229.672 171.658C229.151 171.805 228.59 171.935 227.987 172.049C227.385 172.179 226.767 172.277 226.132 172.342C225.513 172.407 224.911 172.439 224.325 172.439C222.649 172.439 221.111 172.163 219.711 171.609C218.311 171.056 217.107 170.283 216.098 169.29C215.105 168.297 214.324 167.117 213.754 165.75C213.201 164.367 212.924 162.853 212.924 161.209C212.924 159.354 213.184 157.685 213.705 156.204C214.226 154.707 214.966 153.437 215.927 152.396C216.887 151.338 218.051 150.524 219.418 149.954C220.785 149.384 222.323 149.1 224.032 149.1C224.683 149.1 225.285 149.14 225.839 149.222C226.392 149.287 226.921 149.384 227.426 149.515C227.947 149.645 228.459 149.808 228.964 150.003C229.468 150.198 229.989 150.418 230.526 150.662V155.398C229.892 154.975 229.298 154.625 228.744 154.349C228.207 154.056 227.686 153.828 227.182 153.665C226.693 153.486 226.213 153.364 225.741 153.299C225.285 153.234 224.813 153.201 224.325 153.201C223.316 153.201 222.388 153.388 221.542 153.763C220.696 154.121 219.971 154.633 219.369 155.301C218.767 155.968 218.295 156.766 217.953 157.693C217.628 158.621 217.465 159.655 217.465 160.794C217.465 161.966 217.644 163.016 218.002 163.943C218.36 164.855 218.873 165.628 219.54 166.263C220.207 166.897 221.005 167.386 221.933 167.728C222.877 168.069 223.926 168.24 225.082 168.24C226.026 168.24 226.97 168.118 227.914 167.874C228.858 167.63 229.892 167.256 231.015 166.751V171.146ZM240.902 158.597C241.879 158.597 242.717 158.336 243.417 157.815C244.117 157.295 244.743 156.521 245.297 155.496L246.64 153.006C247.014 152.322 247.38 151.761 247.738 151.321C248.113 150.866 248.503 150.507 248.91 150.247C249.333 149.987 249.797 149.808 250.302 149.71C250.806 149.596 251.384 149.539 252.035 149.539H252.987V153.543H251.986C251.465 153.543 251.059 153.681 250.766 153.958C250.473 154.235 250.196 154.601 249.936 155.057L248.788 157.107C248.511 157.612 248.235 158.035 247.958 158.377C247.681 158.719 247.396 159.012 247.104 159.256C246.811 159.484 246.501 159.679 246.176 159.842C245.85 160.005 245.492 160.159 245.102 160.306C245.655 160.468 246.16 160.688 246.615 160.965C247.071 161.225 247.502 161.567 247.909 161.99C248.332 162.397 248.747 162.902 249.154 163.504C249.561 164.106 249.993 164.822 250.448 165.652L253.842 172H248.959L245.907 165.896C245.191 164.497 244.385 163.512 243.49 162.942C242.595 162.373 241.716 162.088 240.854 162.088H240.292V172H235.849V149.539H240.292V158.597H240.902ZM268.271 149.1C270.028 149.1 271.648 149.384 273.129 149.954C274.626 150.524 275.912 151.321 276.986 152.347C278.077 153.356 278.923 154.56 279.525 155.96C280.128 157.36 280.429 158.89 280.429 160.55C280.429 162.324 280.128 163.943 279.525 165.408C278.939 166.873 278.109 168.126 277.035 169.168C275.977 170.21 274.7 171.015 273.202 171.585C271.721 172.155 270.077 172.439 268.271 172.439C266.545 172.439 264.958 172.146 263.51 171.561C262.061 170.958 260.808 170.136 259.75 169.095C258.708 168.037 257.895 166.784 257.309 165.335C256.723 163.87 256.43 162.275 256.43 160.55C256.43 158.938 256.731 157.441 257.333 156.058C257.935 154.658 258.765 153.445 259.823 152.42C260.897 151.378 262.151 150.564 263.583 149.979C265.032 149.393 266.594 149.1 268.271 149.1ZM268.222 153.104C267.18 153.104 266.212 153.291 265.316 153.665C264.438 154.039 263.673 154.56 263.021 155.228C262.37 155.879 261.866 156.66 261.508 157.571C261.15 158.483 260.971 159.476 260.971 160.55C260.971 161.738 261.142 162.82 261.483 163.797C261.841 164.773 262.338 165.612 262.973 166.312C263.624 166.995 264.389 167.524 265.268 167.898C266.163 168.273 267.147 168.46 268.222 168.46C269.394 168.46 270.451 168.281 271.396 167.923C272.34 167.549 273.137 167.028 273.788 166.36C274.455 165.677 274.968 164.855 275.326 163.895C275.684 162.918 275.863 161.819 275.863 160.599C275.863 159.508 275.668 158.507 275.277 157.596C274.903 156.684 274.374 155.895 273.69 155.228C273.023 154.56 272.217 154.039 271.273 153.665C270.346 153.291 269.328 153.104 268.222 153.104ZM289.901 153.543V172H285.458V149.539H299.765V153.543H289.901ZM313.974 149.1C315.731 149.1 317.351 149.384 318.832 149.954C320.329 150.524 321.615 151.321 322.689 152.347C323.78 153.356 324.626 154.56 325.229 155.96C325.831 157.36 326.132 158.89 326.132 160.55C326.132 162.324 325.831 163.943 325.229 165.408C324.643 166.873 323.812 168.126 322.738 169.168C321.68 170.21 320.403 171.015 318.905 171.585C317.424 172.155 315.78 172.439 313.974 172.439C312.248 172.439 310.661 172.146 309.213 171.561C307.764 170.958 306.511 170.136 305.453 169.095C304.411 168.037 303.598 166.784 303.012 165.335C302.426 163.87 302.133 162.275 302.133 160.55C302.133 158.938 302.434 157.441 303.036 156.058C303.638 154.658 304.468 153.445 305.526 152.42C306.601 151.378 307.854 150.564 309.286 149.979C310.735 149.393 312.297 149.1 313.974 149.1ZM313.925 153.104C312.883 153.104 311.915 153.291 311.02 153.665C310.141 154.039 309.376 154.56 308.725 155.228C308.074 155.879 307.569 156.66 307.211 157.571C306.853 158.483 306.674 159.476 306.674 160.55C306.674 161.738 306.845 162.82 307.187 163.797C307.545 164.773 308.041 165.612 308.676 166.312C309.327 166.995 310.092 167.524 310.971 167.898C311.866 168.273 312.851 168.46 313.925 168.46C315.097 168.46 316.155 168.281 317.099 167.923C318.043 167.549 318.84 167.028 319.491 166.36C320.159 165.677 320.671 164.855 321.029 163.895C321.387 162.918 321.566 161.819 321.566 160.599C321.566 159.508 321.371 158.507 320.98 157.596C320.606 156.684 320.077 155.895 319.394 155.228C318.726 154.56 317.921 154.039 316.977 153.665C316.049 153.291 315.032 153.104 313.925 153.104ZM61.1416 228.146C60.7673 228.325 60.3197 228.495 59.7988 228.658C59.278 228.805 58.7165 228.935 58.1143 229.049C57.512 229.179 56.8936 229.277 56.2588 229.342C55.6403 229.407 55.0381 229.439 54.4521 229.439C52.7757 229.439 51.2376 229.163 49.8379 228.609C48.4382 228.056 47.2337 227.283 46.2246 226.29C45.2318 225.297 44.4505 224.117 43.8809 222.75C43.3275 221.367 43.0508 219.853 43.0508 218.209C43.0508 216.354 43.3112 214.685 43.832 213.204C44.3529 211.707 45.0934 210.437 46.0537 209.396C47.014 208.338 48.1777 207.524 49.5449 206.954C50.9121 206.384 52.4502 206.1 54.1592 206.1C54.8102 206.1 55.4124 206.14 55.9658 206.222C56.5192 206.287 57.0482 206.384 57.5527 206.515C58.0736 206.645 58.5863 206.808 59.0908 207.003C59.5954 207.198 60.1162 207.418 60.6533 207.662V212.398C60.0186 211.975 59.4245 211.625 58.8711 211.349C58.334 211.056 57.8132 210.828 57.3086 210.665C56.8203 210.486 56.3402 210.364 55.8682 210.299C55.4124 210.234 54.9404 210.201 54.4521 210.201C53.443 210.201 52.5153 210.388 51.6689 210.763C50.8226 211.121 50.0983 211.633 49.4961 212.301C48.8939 212.968 48.4219 213.766 48.0801 214.693C47.7546 215.621 47.5918 216.655 47.5918 217.794C47.5918 218.966 47.7708 220.016 48.1289 220.943C48.487 221.855 48.9997 222.628 49.667 223.263C50.3343 223.897 51.1318 224.386 52.0596 224.728C53.0036 225.069 54.0534 225.24 55.209 225.24C56.153 225.24 57.097 225.118 58.041 224.874C58.985 224.63 60.0186 224.256 61.1416 223.751V228.146ZM75.8145 215.45V214.254C75.8145 212.838 75.4808 211.829 74.8135 211.227C74.1462 210.608 73.1289 210.299 71.7617 210.299C70.541 210.299 69.3203 210.6 68.0996 211.202C66.8952 211.788 65.7559 212.724 64.6816 214.01V209.151C66.4232 207.117 68.9053 206.1 72.1279 206.1C73.2673 206.1 74.3333 206.246 75.3262 206.539C76.319 206.832 77.1816 207.28 77.9141 207.882C78.6465 208.484 79.2243 209.257 79.6475 210.201C80.0706 211.129 80.2822 212.228 80.2822 213.497V225.045C80.2822 225.468 80.3473 225.769 80.4775 225.948C80.624 226.111 80.8356 226.192 81.1123 226.192C81.3402 226.192 81.6657 226.087 82.0889 225.875C82.512 225.663 82.9759 225.37 83.4805 224.996V227.706C82.9759 228.048 82.5283 228.333 82.1377 228.561C81.7633 228.772 81.4134 228.943 81.0879 229.073C80.7624 229.203 80.445 229.293 80.1357 229.342C79.8428 229.407 79.5254 229.439 79.1836 229.439C78.207 229.439 77.4421 229.269 76.8887 228.927C76.3516 228.569 75.9772 227.975 75.7656 227.145C74.7891 227.926 73.7962 228.504 72.7871 228.878C71.778 229.252 70.7607 229.439 69.7354 229.439C68.9053 229.439 68.1484 229.293 67.4648 229C66.7975 228.691 66.2197 228.284 65.7314 227.779C65.2432 227.275 64.8688 226.697 64.6084 226.046C64.348 225.379 64.2178 224.679 64.2178 223.946C64.2178 222.921 64.4049 222.05 64.7793 221.334C65.1536 220.618 65.6745 219.999 66.3418 219.479C67.0091 218.941 67.8148 218.469 68.7588 218.062C69.7028 217.656 70.7445 217.249 71.8838 216.842L75.8145 215.45ZM75.8145 217.892C74.8704 218.217 73.9671 218.551 73.1045 218.893C72.2581 219.234 71.5094 219.609 70.8584 220.016C70.2074 220.423 69.6865 220.878 69.2959 221.383C68.9215 221.887 68.7344 222.473 68.7344 223.141C68.7344 223.596 68.8158 224.02 68.9785 224.41C69.1413 224.801 69.361 225.134 69.6377 225.411C69.9144 225.688 70.248 225.908 70.6387 226.07C71.0456 226.217 71.4769 226.29 71.9326 226.29C72.6325 226.29 73.2998 226.127 73.9346 225.802C74.5856 225.476 75.2122 225.029 75.8145 224.459V217.892ZM92.5137 206.539L99.4717 220.406L106.063 206.539H110.556L112.167 229H107.968L106.552 213.692L99.4717 229L91.8545 213.546L90.707 229H86.5078L88.0215 206.539H92.5137ZM127.938 206.1C129.696 206.1 131.316 206.384 132.797 206.954C134.294 207.524 135.58 208.321 136.654 209.347C137.745 210.356 138.591 211.56 139.193 212.96C139.796 214.36 140.097 215.89 140.097 217.55C140.097 219.324 139.796 220.943 139.193 222.408C138.607 223.873 137.777 225.126 136.703 226.168C135.645 227.21 134.368 228.015 132.87 228.585C131.389 229.155 129.745 229.439 127.938 229.439C126.213 229.439 124.626 229.146 123.178 228.561C121.729 227.958 120.476 227.136 119.418 226.095C118.376 225.037 117.562 223.784 116.977 222.335C116.391 220.87 116.098 219.275 116.098 217.55C116.098 215.938 116.399 214.441 117.001 213.058C117.603 211.658 118.433 210.445 119.491 209.42C120.565 208.378 121.819 207.564 123.251 206.979C124.7 206.393 126.262 206.1 127.938 206.1ZM127.89 210.104C126.848 210.104 125.88 210.291 124.984 210.665C124.105 211.039 123.34 211.56 122.689 212.228C122.038 212.879 121.534 213.66 121.176 214.571C120.818 215.483 120.639 216.476 120.639 217.55C120.639 218.738 120.81 219.82 121.151 220.797C121.509 221.773 122.006 222.612 122.641 223.312C123.292 223.995 124.057 224.524 124.936 224.898C125.831 225.273 126.815 225.46 127.89 225.46C129.062 225.46 130.119 225.281 131.063 224.923C132.007 224.549 132.805 224.028 133.456 223.36C134.123 222.677 134.636 221.855 134.994 220.895C135.352 219.918 135.531 218.819 135.531 217.599C135.531 216.508 135.336 215.507 134.945 214.596C134.571 213.684 134.042 212.895 133.358 212.228C132.691 211.56 131.885 211.039 130.941 210.665C130.014 210.291 128.996 210.104 127.89 210.104ZM163.778 206.539L147.885 240.499H142.929L150.57 224.19L141.879 206.539H146.933L152.987 219.21L158.773 206.539H163.778ZM186.947 206.539V229H182.504V210.543H171.493V229H167.05V206.539H186.947ZM201.034 206.539C205.119 206.539 208.244 207.516 210.409 209.469C212.59 211.422 213.681 214.246 213.681 217.94C213.681 219.633 213.396 221.188 212.826 222.604C212.273 224.003 211.483 225.216 210.458 226.241C209.449 227.25 208.244 228.04 206.845 228.609C205.461 229.163 203.939 229.439 202.279 229.439C201.547 229.439 200.831 229.358 200.131 229.195C199.431 229.049 198.642 228.797 197.763 228.438V240.499H193.319V206.539H201.034ZM197.763 210.543V224.459C199.146 225.126 200.546 225.46 201.962 225.46C203.004 225.46 203.956 225.273 204.818 224.898C205.697 224.508 206.454 223.979 207.089 223.312C207.724 222.644 208.22 221.847 208.578 220.919C208.936 219.991 209.115 218.982 209.115 217.892C209.115 216.736 208.928 215.702 208.554 214.791C208.179 213.88 207.659 213.115 206.991 212.496C206.34 211.861 205.567 211.381 204.672 211.056C203.793 210.714 202.841 210.543 201.815 210.543H197.763ZM228.354 215.45V214.254C228.354 212.838 228.02 211.829 227.353 211.227C226.685 210.608 225.668 210.299 224.301 210.299C223.08 210.299 221.859 210.6 220.639 211.202C219.434 211.788 218.295 212.724 217.221 214.01V209.151C218.962 207.117 221.444 206.1 224.667 206.1C225.806 206.1 226.872 206.246 227.865 206.539C228.858 206.832 229.721 207.28 230.453 207.882C231.186 208.484 231.763 209.257 232.187 210.201C232.61 211.129 232.821 212.228 232.821 213.497V225.045C232.821 225.468 232.886 225.769 233.017 225.948C233.163 226.111 233.375 226.192 233.651 226.192C233.879 226.192 234.205 226.087 234.628 225.875C235.051 225.663 235.515 225.37 236.02 224.996V227.706C235.515 228.048 235.067 228.333 234.677 228.561C234.302 228.772 233.952 228.943 233.627 229.073C233.301 229.203 232.984 229.293 232.675 229.342C232.382 229.407 232.064 229.439 231.723 229.439C230.746 229.439 229.981 229.269 229.428 228.927C228.891 228.569 228.516 227.975 228.305 227.145C227.328 227.926 226.335 228.504 225.326 228.878C224.317 229.252 223.3 229.439 222.274 229.439C221.444 229.439 220.688 229.293 220.004 229C219.337 228.691 218.759 228.284 218.271 227.779C217.782 227.275 217.408 226.697 217.147 226.046C216.887 225.379 216.757 224.679 216.757 223.946C216.757 222.921 216.944 222.05 217.318 221.334C217.693 220.618 218.214 219.999 218.881 219.479C219.548 218.941 220.354 218.469 221.298 218.062C222.242 217.656 223.284 217.249 224.423 216.842L228.354 215.45ZM228.354 217.892C227.41 218.217 226.506 218.551 225.644 218.893C224.797 219.234 224.049 219.609 223.397 220.016C222.746 220.423 222.226 220.878 221.835 221.383C221.461 221.887 221.273 222.473 221.273 223.141C221.273 223.596 221.355 224.02 221.518 224.41C221.68 224.801 221.9 225.134 222.177 225.411C222.453 225.688 222.787 225.908 223.178 226.07C223.585 226.217 224.016 226.29 224.472 226.29C225.172 226.29 225.839 226.127 226.474 225.802C227.125 225.476 227.751 225.029 228.354 224.459V217.892ZM239.853 229V206.539H248.349C249.569 206.539 250.66 206.686 251.62 206.979C252.597 207.255 253.419 207.662 254.086 208.199C254.77 208.72 255.29 209.347 255.648 210.079C256.023 210.812 256.21 211.617 256.21 212.496C256.21 213.147 256.112 213.749 255.917 214.303C255.722 214.84 255.469 215.32 255.16 215.743C254.851 216.166 254.493 216.533 254.086 216.842C253.695 217.151 253.297 217.403 252.89 217.599C253.394 217.826 253.874 218.087 254.33 218.38C254.802 218.657 255.217 218.998 255.575 219.405C255.933 219.812 256.218 220.292 256.43 220.846C256.641 221.383 256.747 222.018 256.747 222.75C256.747 223.531 256.609 224.296 256.332 225.045C256.072 225.794 255.64 226.461 255.038 227.047C254.436 227.633 253.646 228.105 252.67 228.463C251.71 228.821 250.521 229 249.105 229H239.853ZM244.296 210.543V216.305H247.641C248.878 216.305 249.854 216.069 250.57 215.597C251.286 215.108 251.645 214.262 251.645 213.058C251.645 212.602 251.522 212.219 251.278 211.91C251.034 211.585 250.717 211.324 250.326 211.129C249.936 210.917 249.504 210.771 249.032 210.689C248.56 210.592 248.096 210.543 247.641 210.543H244.296ZM244.296 219.259V224.996H248.349C248.902 224.996 249.415 224.947 249.887 224.85C250.359 224.736 250.766 224.565 251.107 224.337C251.449 224.093 251.718 223.792 251.913 223.434C252.108 223.059 252.206 222.612 252.206 222.091C252.206 221.603 252.076 221.188 251.815 220.846C251.555 220.488 251.189 220.195 250.717 219.967C250.261 219.723 249.716 219.544 249.081 219.43C248.463 219.316 247.787 219.259 247.055 219.259H244.296ZM269.223 206.1H270.834L280.478 229H275.717L269.882 214.205L263.778 229H258.871L269.223 206.1ZM287.143 218.453C287.859 222.945 290.373 225.191 294.687 225.191C296.07 225.191 297.396 224.955 298.666 224.483C299.936 224.011 301.229 223.352 302.548 222.506V226.803C301.864 227.258 301.189 227.649 300.521 227.975C299.87 228.3 299.187 228.577 298.471 228.805C297.771 229.016 297.022 229.171 296.225 229.269C295.427 229.382 294.548 229.439 293.588 229.439C291.846 229.439 290.3 229.114 288.949 228.463C287.598 227.796 286.459 226.909 285.531 225.802C284.604 224.695 283.896 223.425 283.407 221.993C282.935 220.545 282.699 219.047 282.699 217.501C282.699 215.792 282.951 214.238 283.456 212.838C283.977 211.438 284.701 210.242 285.629 209.249C286.557 208.24 287.663 207.467 288.949 206.93C290.235 206.376 291.651 206.1 293.197 206.1C294.695 206.1 296.037 206.36 297.226 206.881C298.43 207.385 299.455 208.15 300.302 209.176C301.148 210.201 301.799 211.487 302.255 213.033C302.711 214.579 302.938 216.386 302.938 218.453H287.143ZM298.544 215.499C298.479 213.79 297.982 212.439 297.055 211.446C296.127 210.453 294.874 209.957 293.295 209.957C291.57 209.957 290.202 210.437 289.193 211.397C288.201 212.358 287.549 213.725 287.24 215.499H298.544ZM327.768 206.539V229H323.324V219.405H312.313V229H307.87V206.539H312.313V215.401H323.324V206.539H327.768ZM349.594 214.596L336.654 229.439H334.14V206.539H338.583V221.847L351.645 206.539H354.037V229H349.594V214.596ZM361.264 224.19C361.882 223.263 362.533 222.433 363.217 221.7C363.9 220.968 364.682 220.398 365.561 219.991C364.812 219.715 364.136 219.389 363.534 219.015C362.932 218.624 362.411 218.168 361.972 217.647C361.549 217.127 361.223 216.533 360.995 215.865C360.767 215.182 360.653 214.409 360.653 213.546C360.653 212.472 360.906 211.503 361.41 210.641C361.931 209.778 362.606 209.046 363.437 208.443C364.283 207.825 365.243 207.353 366.317 207.027C367.392 206.702 368.49 206.539 369.613 206.539H377.963V229H373.52V220.797H372.25C371.664 220.797 371.094 220.854 370.541 220.968C370.004 221.082 369.483 221.277 368.979 221.554C368.49 221.814 368.01 222.18 367.538 222.652C367.066 223.108 366.61 223.678 366.171 224.361L363.217 229H357.968L361.264 224.19ZM373.52 217.306V210.543H369.613C368.181 210.543 367.09 210.82 366.342 211.373C365.593 211.91 365.219 212.716 365.219 213.79C365.219 214.197 365.292 214.612 365.438 215.035C365.601 215.442 365.854 215.816 366.195 216.158C366.553 216.5 367.009 216.777 367.562 216.988C368.132 217.2 368.816 217.306 369.613 217.306H373.52Z" fill="black"/>
</g>
<defs>
<clipPath id="clip0_1006_206">
<rect width="504" height="408" fill="white"/>
</clipPath>
</defs>
</svg>
